<?xml version="1.0" encoding="utf-8"?>
<!-- Generator: Adobe Illustrator 27.0.0, SVG Export Plug-In . SVG Version: 6.00 Build 0)  -->
<svg version="1.1" id="Grupo_119" xmlns="http://www.w3.org/2000/svg" xmlns:xlink="http://www.w3.org/1999/xlink" x="0px" y="0px"
	 viewBox="0 0 1920 123" style="enable-background:new 0 0 1920 123;" xml:space="preserve">
<style type="text/css">
	.st0{fill:#1E1D20;}
	.st1{fill:#232225;}
</style>
<g id="Grupo_120">
	<g>
		<path class="st0" d="M1404.8,124.6c-9.6-4.7-22.1-7.3-35.4-7.3c-13.3,0-25.8,2.6-35.4,7.3H1404.8z"/>
		<path class="st0" d="M1540.3,124.6c-19.5-9.2-49.6-9.2-69.1,0H1540.3z"/>
		<path class="st0" d="M1133.9,124.6l-0.7-0.3c-9.7-5-22.6-7.8-36.3-7.8s-26.6,2.8-36.3,7.8l-0.7,0.3H1133.9z"/>
		<path class="st0" d="M1269.4,124.6c-20-10.3-52.4-10.3-72.3,0H1269.4z"/>
		<path class="st0" d="M1675.7,124.6c-9.3-4.2-21.2-6.5-33.7-6.5s-24.3,2.3-33.7,6.5H1675.7z"/>
		<path class="st0" d="M1920,124.6v-5.2c-1.7-0.3-3.4-0.4-5.1-0.5h-0.4c-11.7,0-22.8,2-31.8,5.7H1920z"/>
		<path class="st0" d="M1811,124.6c-18.9-8.1-46.6-8.1-65.5,0H1811z"/>
		<path class="st0" d="M319.1,124.6l-4.5-2.3c-9.7-5-22.6-7.8-36.3-7.8c-13.7,0-26.7,2.8-36.4,7.8l-4.5,2.3H319.1z"/>
		<path class="st0" d="M454.8,124.6l-3.8-1.9c-9.7-5-22.6-7.8-36.3-7.8c-13.7,0-26.6,2.8-36.3,7.8l-3.8,1.9H454.8z"/>
		<path class="st0" d="M183.5,124.6l-5.3-2.7c-20-10.4-52.6-10.4-72.6,0l-5.3,2.7H183.5z"/>
		<path class="st0" d="M48,124.6l-6.1-3.1c-9.8-5.1-22.7-7.8-36.8-7.8c-1.7,0-3.4,0.2-5.1,0.4v10.5H48z"/>
		<path class="st0" d="M998.5,124.6l-1.4-0.7c-15.1-7.8-37.2-9.7-55.8-5.8c-5.9,1.2-11.6,3.1-17,5.8l-1.4,0.7H998.5z"/>
		<path class="st0" d="M863.1,124.6l-2.2-1.1c-20-10.4-52.6-10.3-72.6,0l-2.2,1.1H863.1z"/>
		<path class="st0" d="M726.1,124.6l-2.4-1.2c-9.7-5-22.6-7.8-36.3-7.8s-26.6,2.8-36.3,7.8l-2.4,1.2H726.1z"/>
		<path class="st0" d="M590.6,124.6l-3.2-1.6c-9.7-5-22.6-7.8-36.3-7.8s-26.6,2.8-36.3,7.8l-3.2,1.6H590.6z"/>
		<path class="st0" d="M1902.3,124.6c3.7-1.5,7.6-2.2,11.6-2.1h0.3c1.8,0,4-0.1,5.8-0.4l0-16.2c-1.7-0.3-3.4-0.4-5.1-0.5h-0.4
			c-13.7,0-26.6,2.8-36.3,7.8l-18.4,9.5c-1.6,0.8-3.5,1.5-5.5,1.9H1902.3z"/>
		<path class="st0" d="M6.1,116.9c4.6-0.1,9.1,0.9,13.3,2.8l9.5,4.9h91.8l8.8-4.5c7-3.6,19.2-3.6,26.2,0l8.8,4.5h93.3l8-4.1
			c7-3.6,19.2-3.6,26.1,0l8,4.1h94.9l7.2-3.7c8.3-3.7,17.8-3.7,26.2,0l7.2,3.7h96.4l6.5-3.3c7.2-3.7,18.9-3.7,26.2,0l6.4,3.3h98
			l5.7-2.9c8.3-3.7,17.8-3.7,26.1,0l5.7,2.9h99.5l4.9-2.5c7.2-3.7,18.9-3.7,26.2,0l4.9,2.5H943l4.1-2.1c1.9-0.9,3.9-1.6,6-2.1
			c6.7-1.4,14.6-0.7,20,2.1l4.1,2.1h102.6l3.4-1.7c7-3.6,19.2-3.6,26.2,0l3.4,1.7h104.2l2.6-1.3c7.2-3.7,18.9-3.7,26.1,0l2.6,1.3
			h105.7l1.8-0.9c8.3-3.7,17.8-3.7,26.2,0l1.8,0.9H1491l1-0.5c7.2-3.7,18.9-3.7,26.1,0l1,0.5h108.8l0.3-0.1c8.3-3.7,17.8-3.7,26.2,0
			l0.3,0.1h50.6c-2.7-0.4-5.3-1.2-7.9-2.3l-19.1-9.9c-9.7-5-22.6-7.8-36.3-7.8s-26.6,2.8-36.3,7.8l-18.4,9.5c-7,3.6-19.2,3.6-26.2,0
			L1542,112c-20-10.4-52.6-10.4-72.6,0l-18.4,9.5c-7.2,3.7-18.9,3.7-26.2,0l-19.1-9.9c-9.7-5-22.6-7.8-36.3-7.8
			c-13.7,0-26.6,2.8-36.3,7.8l-18.4,9.5c-7,3.6-19.2,3.6-26.1,0l-19.6-9.7c-20-10.4-52.6-10.4-72.6,0l-18.4,9.5
			c-7.2,3.7-18.9,3.7-26.2,0l-19.1-9.9c-9.7-5-22.6-7.8-36.3-7.8s-26.6,2.8-36.3,7.8l-18.4,9.5c-7.2,3.7-18.9,3.7-26.2,0l-18.9-9.9
			c-15.1-7.8-37.2-9.7-55.8-5.8c-5.9,1.2-11.6,3.1-17,5.8l-11.5,6l-6.7,3.5c-7,3.6-19.2,3.6-26.1,0l-19.1-9.9
			c-20-10.4-52.6-10.3-72.6,0l-18.4,9.5c-7,3.6-19.2,3.6-26.2,0l-19.1-9.9c-9.7-5-22.6-7.8-36.3-7.8s-26.6,2.8-36.3,7.8l-18.4,9.5
			c-7,3.6-19.2,3.6-26.2,0l-19.1-9.9c-9.7-5-22.6-7.8-36.3-7.8s-26.6,2.8-36.3,7.8l-18.4,9.5c-8.3,3.7-17.8,3.7-26.2,0l-19.1-9.9
			c-9.7-5-22.6-7.8-36.3-7.8c-13.7,0-26.6,2.8-36.3,7.8l-18.4,9.5c-7.2,3.7-18.9,3.7-26.2,0l-19.1-9.9c-9.7-5-22.6-7.8-36.3-7.8
			c-13.7,0-26.6,2.8-36.3,7.8l-18.4,9.5c-7.2,3.7-18.9,3.7-26.2,0l-19.1-9.9c-20-10.4-52.6-10.4-72.6,0l-18.4,9.5
			c-7.2,3.7-18.9,3.7-26.2,0l-19.1-9.9c-9.8-5.1-22.7-7.8-36.8-7.8c-1.7,0-4.1,0.3-5.8,0.5v16c1.7,0.3,4.2,0.4,5.9,0.4H6.1z"/>
		<path class="st0" d="M1765.1,124.6c7-3.3,17.9-3.3,25.1,0h49.1c-2-0.5-3.9-1.1-5.5-1.9l-19.1-9.9c-20-10.3-52.6-10.3-72.6,0
			l-18.4,9.5c-2.5,1.1-5.1,1.9-7.8,2.3H1765.1z"/>
		<path class="st0" d="M5.4,101.8c4.6-0.1,9.1,0.9,13.3,2.8l19.1,9.9c20,10.4,52.6,10.4,72.6,0l18.4-9.5c7-3.6,19.2-3.6,26.2,0
			l19.1,9.9c20,10.3,52.6,10.4,72.6,0l18.4-9.5c7-3.6,19.2-3.6,26.1,0l19.1,9.9c20,10.4,52.6,10.4,72.6,0l18.4-9.5
			c8.3-3.7,17.8-3.7,26.2,0l19.1,9.9c9.7,5,22.6,7.8,36.3,7.8c13.7,0,26.6-2.8,36.3-7.8l18.4-9.5c7.2-3.7,18.9-3.7,26.2,0l19.1,9.9
			c20,10.4,52.6,10.3,72.6,0l18.4-9.5c8.3-3.7,17.8-3.7,26.1,0l19.1,9.9c9.7,5,22.6,7.8,36.3,7.8s26.6-2.8,36.3-7.8l18.4-9.5
			c7.2-3.7,18.9-3.7,26.2,0l19.1,9.9c9.2,4.8,21,7.3,33,7.7h6.6c12-0.4,23.8-3,33-7.7l18.4-9.5c1.9-0.9,3.9-1.6,6-2.1
			c6.7-1.4,14.6-0.7,20,2.1l19.1,9.9c7.7,4,17.1,6.4,27.1,7.3h18.3c10-0.9,19.6-3.4,27.3-7.3l18.4-9.5c7-3.6,19.2-3.6,26.2,0
			l19.1,9.9c6.7,3.5,14.8,5.8,23.3,6.9h25.9c8.6-1.2,16.7-3.5,23.3-6.9l18.4-9.5c7.2-3.7,18.9-3.7,26.1,0l19.1,9.9
			c6,3.1,13.1,5.3,20.7,6.5h31.2c7.6-1.2,14.7-3.4,20.7-6.5l18.4-9.5c8.3-3.7,17.8-3.7,26.2,0l19.1,9.9c5.5,2.8,11.8,4.9,18.7,6.1
			h35.4c6.8-1.3,13.1-3.3,18.5-6.1l18.4-9.5c7.2-3.7,18.9-3.7,26.1,0l19.1,9.9c4.9,2.5,10.6,4.4,16.7,5.7h39.4
			c6-1.3,11.6-3.2,16.5-5.7l18.4-9.5c8.3-3.7,17.8-3.7,26.2,0l19.1,9.9c4.3,2.2,9.3,4,14.8,5.3h43.1c5.4-1.3,10.4-3.1,14.8-5.3
			l18.4-9.5c7.2-3.7,18.9-3.7,26.2,0l19.1,9.9c3.9,2,8.4,3.7,13.2,4.9h46.2c4.8-1.3,9.3-2.9,13.2-4.9l18.4-9.5
			c4.1-1.9,8.6-2.9,13.1-2.8h0.3c1.8,0,4.7-0.4,6.5-0.7l0-16.2c-1.7-0.3-3.4-0.4-5.1-0.5h-0.4c-13.7,0-26.6,2.8-36.3,7.8l-18.4,9.5
			c-7.2,3.7-18.9,3.7-26.1,0l-19.1-9.9c-20-10.3-52.6-10.3-72.6,0l-18.4,9.5c-8.3,3.7-17.8,3.7-26.2,0l-19.1-9.9
			c-9.7-5-22.6-7.8-36.3-7.8s-26.6,2.8-36.3,7.8l-18.4,9.5c-7,3.6-19.2,3.6-26.2,0l-19.1-9.9c-20-10.4-52.6-10.4-72.6,0l-18.4,9.5
			c-7.2,3.7-18.9,3.7-26.2,0l-19.1-9.9c-9.7-5-22.6-7.8-36.3-7.8c-13.7,0-26.6,2.8-36.3,7.8l-18.4,9.5c-7,3.6-19.2,3.6-26.1,0
			l-19.1-9.9c-20-10.4-52.6-10.4-72.6,0l-18.4,9.5c-7.2,3.7-18.9,3.7-26.2,0l-19.1-9.9c-9.7-5-22.6-7.8-36.3-7.8s-26.6,2.8-36.3,7.8
			l-18.4,9.5c-7.2,3.7-18.9,3.7-26.2,0L997.1,95c-15.1-7.8-37.2-9.7-55.8-5.8c-5.9,1.2-11.6,3.1-17,5.8l-11.5,6l-6.7,3.5
			c-7,3.6-19.2,3.6-26.1,0l-19.1-9.9c-20-10.4-52.6-10.3-72.6,0l-19.3,9.8c-7,3.6-19.2,3.6-26.2,0l-19.1-9.9
			c-9.7-5-22.6-7.8-36.3-7.8s-26.6,2.8-36.3,7.8l-18.4,9.5c-7,3.6-19.2,3.6-26.2,0l-19.1-9.9c-9.7-5-22.6-7.8-36.3-7.8
			s-26.6,2.8-36.3,7.8l-18.4,9.5c-8.3,3.7-17.8,3.7-26.2,0L451,93.8c-9.7-5-22.6-7.8-36.3-7.8c-13.7,0-26.6,2.8-36.3,7.8l-18.4,9.5
			c-7.2,3.7-18.9,3.7-26.2,0l-19.2-9.9c-9.7-5-22.6-7.8-36.3-7.8c-13.7,0-26.7,2.8-36.4,7.8l-18.4,9.5c-7.2,3.7-18.9,3.7-26.2,0
			L178.2,93c-20-10.4-52.6-10.4-72.6,0l-18.4,9.5c-7.2,3.7-18.9,3.7-26.2,0l-19.1-9.9c-9.8-5.1-22.7-7.8-36.8-7.8
			c-1.7,0-3.4,0.2-5.1,0.4v16.2c1.7,0.3,3.5,0.4,5.2,0.4H5.4z"/>
		<path id="Trazado_148_00000070827757683469295080000016144785138577702831_" class="st0" d="M1920,77.1c-1.7-0.3-3.4-0.4-5.1-0.5
			l0,0h-0.4c-13.7,0-26.6,2.8-36.3,7.8l-18.4,9.5c-7.2,3.7-18.9,3.7-26.1,0l-19.1-9.9c-20-10.3-52.6-10.3-72.6,0l-18.4,9.5
			c-8.3,3.7-17.8,3.7-26.2,0l-19.1-9.9c-9.7-5-22.6-7.8-36.3-7.8s-26.6,2.8-36.3,7.8l-18.4,9.5c-7,3.6-19.2,3.6-26.2,0l-19.1-9.9
			c-20-10.4-52.6-10.4-72.6,0l-18.4,9.5c-7.2,3.7-18.9,3.7-26.2,0l-19.1-9.9c-9.7-5-22.6-7.8-36.3-7.8l0,0
			c-13.7,0-26.6,2.8-36.3,7.8l-18.4,9.5c-7,3.6-19.2,3.6-26.1,0l-19.1-9.9c-20-10.4-52.6-10.4-72.6,0l-18.4,9.5
			c-7.2,3.7-18.9,3.7-26.2,0l-19.1-9.9c-9.7-5-22.6-7.8-36.3-7.8s-26.6,2.8-36.3,7.8l-18.4,9.5c-7.2,3.7-18.9,3.7-26.2,0l-18.9-9.9
			c-15.1-7.8-37.2-9.7-55.8-5.8c-5.9,1.2-11.6,3.1-17,5.8l-11.5,6l-6.7,3.5c-7,3.6-19.2,3.6-26.1,0l-19.1-9.9
			c-20-10.4-52.6-10.3-72.6,0L769,91c-7,3.6-19.2,3.6-26.2,0l-19.1-9.9c-9.7-5-22.6-7.8-36.3-7.8l0,0c-13.7,0-26.6,2.8-36.3,7.8
			l-18.4,9.5c-7,3.6-19.2,3.6-26.2,0l-19.1-9.9c-9.7-5-22.6-7.8-36.3-7.8s-26.6,2.8-36.3,7.8l-18.4,9.5c-8.3,3.7-17.8,3.7-26.2,0
			L451,80.4c-9.7-5-22.6-7.8-36.3-7.8s-26.7,2.8-36.4,7.8l-18.4,9.5c-7.2,3.7-18.9,3.7-26.2,0L314.6,80c-9.7-5-22.6-7.8-36.3-7.8
			S251.7,75,242,80l-18.4,9.5c-7.2,3.7-18.9,3.7-26.2,0l-19.1-9.9c-20-10.4-52.6-10.4-72.6,0l-18.4,9.5c-7.2,3.7-18.9,3.7-26.2,0
			L42,79.2c-9.8-5.1-22.7-7.8-36.8-7.8c-1.7,0-3.5,0.2-5.2,0.4v16.1c1.7,0.3,3.6,0.4,5.3,0.4h0.2c4.6-0.1,9.1,0.9,13.3,2.8l19.1,9.9
			c20,10.4,52.6,10.4,72.6,0l18.4-9.5c7-3.6,19.2-3.6,26.2,0l19.1,9.9c20,10.3,52.6,10.4,72.6,0l18.4-9.5c7-3.6,19.2-3.6,26.1,0
			l19.1,9.9c20,10.4,52.6,10.4,72.6,0l18.4-9.5c8.3-3.7,17.8-3.7,26.2,0l19.1,9.9c9.7,5,22.6,7.8,36.3,7.8s26.6-2.8,36.3-7.8
			l18.4-9.5c7.2-3.7,18.9-3.7,26.2,0l19.1,9.9c20,10.4,52.6,10.3,72.6,0l18.4-9.5c8.3-3.7,17.8-3.7,26.1,0l19.1,9.9
			c9.7,5,22.6,7.8,36.3,7.8s26.6-2.8,36.3-7.8l18.4-9.5c7.2-3.7,18.9-3.7,26.2,0l19.1,9.9c10,5.2,23.2,7.8,36.3,7.8
			s26.3-2.6,36.3-7.8l18.4-9.5c1.9-0.9,3.9-1.6,6-2.1c6.7-1.4,14.6-0.7,20,2.1l19.1,9.9c20,10.4,52.6,10.3,72.6,0l18.4-9.5
			c7-3.6,19.2-3.6,26.2,0l19.1,9.9c20,10.4,52.6,10.4,72.6,0l18.4-9.5c7.2-3.7,18.9-3.7,26.1,0l19.1,9.9c20,10.4,52.6,10.4,72.6,0
			l18.4-9.5c8.3-3.7,17.8-3.7,26.2,0l19.1,9.9c20,10.3,52.6,10.4,72.6,0l18.4-9.5c7.2-3.7,18.9-3.7,26.1,0l19.1,9.9
			c20,10.3,52.6,10.4,72.6,0l18.4-9.5c8.3-3.7,17.8-3.7,26.2,0l19.1,9.9c9.7,5,22.6,7.8,36.3,7.8l0,0c13.7,0,26.6-2.8,36.3-7.8
			l18.4-9.5c7.2-3.7,18.9-3.7,26.2,0l19.1,9.9c9.7,5,22.6,7.8,36.3,7.8s26.6-2.8,36.3-7.8l18.4-9.5c4.1-1.9,8.6-2.9,13.1-2.8h0.3
			c1.8,0,4.6-0.4,6.4-0.7L1920,77.1z"/>
		<path id="Trazado_149_00000119833407666252390410000016127721589089298366_" class="st0" d="M1920,61.6c-1.7-0.3-3.4-0.4-5.1-0.5
			l0,0h-0.4c-13.7,0-26.6,2.8-36.3,7.8l-18.4,9.5c-7.2,3.7-18.9,3.7-26.1,0l-19.1-9.9c-20-10.3-52.6-10.3-72.6,0l-18.4,9.5
			c-8.3,3.7-17.8,3.7-26.2,0l-19.1-9.9c-9.7-5-22.6-7.8-36.3-7.8s-26.6,2.8-36.3,7.8l-18.4,9.5c-7,3.6-19.2,3.6-26.2,0l-19.1-9.9
			c-20-10.4-52.6-10.4-72.6,0l-18.4,9.5c-7.2,3.7-18.9,3.7-26.2,0l-19.1-9.9c-9.7-5-22.6-7.8-36.3-7.8l0,0
			c-13.7,0-26.6,2.8-36.3,7.8l-18.4,9.5c-7,3.6-19.2,3.6-26.1,0l-19.1-9.9c-20-10.4-52.6-10.4-72.6,0l-18.4,9.5
			c-7.2,3.7-18.9,3.7-26.2,0l-19.1-9.9c-9.7-5-22.6-7.8-36.3-7.8s-26.6,2.8-36.3,7.8l-18.4,9.5c-7.2,3.7-18.9,3.7-26.2,0l-19.6-9.6
			c-15.1-7.8-37.2-9.7-55.8-5.8c-5.9,1.2-11.6,3.1-17,5.8l-11.5,6l-6.7,3.5c-7,3.6-19.2,3.6-26.1,0L860.2,66
			c-20-10.4-52.6-10.3-72.6,0L769,75.5c-7,3.6-19.2,3.6-26.2,0l-19.1-9.9c-9.7-5-22.6-7.8-36.3-7.8l0,0c-13.7,0-26.6,2.8-36.3,7.8
			l-18.4,9.5c-7,3.6-19.2,3.6-26.2,0l-19.1-9.9c-9.7-5-22.6-7.8-36.3-7.8s-26.6,2.8-36.3,7.8l-18.4,9.5c-8.3,3.7-17.8,3.7-26.2,0
			L451,64.9c-9.7-5-22.6-7.8-36.3-7.8s-26.6,2.8-36.3,7.8L360,74.4c-7.2,3.7-18.9,3.7-26.2,0l-19.1-9.9c-9.7-5-22.6-7.8-36.3-7.8
			s-26.6,2.8-36.3,7.8L223.7,74c-7.2,3.7-18.9,3.7-26.2,0l-19.1-9.9c-20-10.4-52.6-10.4-72.6,0l-18.4,9.5c-7.2,3.7-18.9,3.7-26.2,0
			l-19.1-9.9c-9.8-5.1-22.7-7.8-36.8-7.8c-1.7,0-3.6,0.2-5.3,0.4v16.1c1.7,0.3,3.7,0.4,5.4,0.4h0.2c4.6-0.1,9.1,0.9,13.3,2.8
			L38,85.5c20,10.4,52.6,10.4,72.6,0L129,76c7-3.6,19.2-3.6,26.2,0l19.1,9.9c20,10.3,52.6,10.4,72.6,0l18.4-9.5
			c7-3.6,19.2-3.6,26.1,0l19.1,9.9c20,10.4,52.6,10.4,72.6,0l18.4-9.5c8.3-3.7,17.8-3.7,26.2,0l19.1,9.9c9.7,5,22.6,7.8,36.3,7.8
			s26.6-2.8,36.3-7.8l18.4-9.5c7.2-3.7,18.9-3.7,26.2,0l19.1,9.9c20,10.4,52.6,10.3,72.6,0l18.4-9.5c8.3-3.7,17.8-3.7,26.1,0
			l19.1,9.9c9.7,5,22.6,7.8,36.3,7.8s26.6-2.8,36.3-7.8l18.4-9.5c7.2-3.7,18.9-3.7,26.2,0l19.1,9.9c10,5.2,23.2,7.8,36.3,7.8
			s26.3-2.6,36.3-7.8l18.8-9.5c1.9-0.9,3.9-1.6,6-2.1c6.7-1.4,14.6-0.7,20,2.1l19.1,9.9c20,10.4,52.6,10.3,72.6,0l18.4-9.5
			c7-3.6,19.2-3.6,26.2,0l19.1,9.9c20,10.4,52.6,10.4,72.6,0l18.4-9.5c7.2-3.7,18.9-3.7,26.1,0l19.1,9.9c20,10.4,52.6,10.4,72.6,0
			l18.4-9.5c8.3-3.7,17.8-3.7,26.2,0l19.1,9.9c20,10.3,52.6,10.4,72.6,0l18.4-9.5c7.2-3.7,18.9-3.7,26.1,0l19.1,9.9
			c20,10.3,52.6,10.4,72.6,0l18.4-9.5c8.3-3.7,17.8-3.7,26.2,0l19.1,9.9c9.7,5,22.6,7.8,36.3,7.8l0,0c13.7,0,26.6-2.8,36.3-7.8
			l18.4-9.5c7.2-3.7,18.9-3.7,26.2,0l19.1,9.9c9.7,5,22.6,7.8,36.3,7.8s26.6-2.8,36.3-7.8l18.4-9.5c4.1-1.9,8.6-2.9,13.1-2.8h0.3
			c1.8,0,4.1-0.2,5.9-0.5L1920,61.6z"/>
		<path id="Trazado_150_00000135671048489066005200000014022939237421237941_" class="st0" d="M1920,48.2c-1.7-0.3-3.4-0.4-5.1-0.5
			l0,0h-0.4c-13.7,0-26.6,2.8-36.3,7.8l-18.4,9.5c-7.2,3.7-18.9,3.7-26.1,0l-19.1-9.9c-20-10.3-52.6-10.3-72.6,0l-18.4,9.5
			c-8.3,3.7-17.8,3.7-26.2,0l-19.1-9.9c-9.7-5-22.6-7.8-36.3-7.8s-26.6,2.8-36.3,7.8l-18.7,9.7c-7,3.6-19.2,3.6-26.2,0l-19.1-9.9
			c-20-10.4-52.6-10.4-72.6,0l-18.4,9.5c-7.2,3.7-18.9,3.7-26.2,0l-19.1-9.9c-9.7-5-22.6-7.8-36.3-7.8l0,0
			c-13.7,0-26.6,2.8-36.3,7.8l-18.4,9.5c-7,3.6-19.2,3.6-26.1,0l-19.1-9.9c-20-10.4-52.6-10.4-72.6,0l-18.4,9.5
			c-7.2,3.7-18.9,3.7-26.2,0l-19.1-9.9c-9.7-5-22.6-7.8-36.3-7.8s-26.6,2.8-36.3,7.8l-18.4,9.5c-7.2,3.7-18.9,3.7-26.2,0l-18.9-9.9
			c-15.1-7.8-37.2-9.7-55.8-5.8c-5.9,1.2-11.6,3.1-17,5.8l-11.5,6l-6.7,3.5c-7,3.6-19.2,3.6-26.1,0l-19.1-9.9
			c-20-10.4-52.6-10.3-72.6,0l-19,9.7c-7,3.6-19.2,3.6-26.2,0l-19.1-9.9c-9.7-5-22.6-7.8-36.3-7.8l0,0c-13.7,0-26.6,2.8-36.3,7.8
			l-18.4,9.5c-7,3.6-19.2,3.6-26.1,0l-19.1-9.9c-9.7-5-22.6-7.8-36.3-7.8s-26.6,2.8-36.3,7.8l-18.7,9.5c-8.3,3.7-17.8,3.7-26.2,0
			l-19-9.9c-9.7-5-22.6-7.8-36.3-7.8s-26.6,2.8-36.3,7.8L360,61c-7.2,3.7-18.9,3.7-26.2,0l-19.1-9.9c-9.7-5-22.6-7.8-36.3-7.8
			s-26.6,2.8-36.3,7.8l-18.4,9.5c-7.2,3.7-18.9,3.7-26.2,0l-19.1-9.9c-20-10.4-52.6-10.4-72.6,0l-18.4,9.5c-7.2,3.7-18.9,3.7-26.2,0
			l-19.1-9.9c-10.1-4.9-22.9-7.6-37-7.6c-1.7,0-3.4,0.2-5.1,0.4v16.1c1.7,0.3,3.5,0.4,5.2,0.4h0.2c4.6-0.1,9.1,0.9,13.3,2.8l19.1,10
			c20,10.4,52.6,10.4,72.6,0l18.4-9.5c7-3.6,19.2-3.6,26.2,0l19.1,9.9c20,10.3,52.6,10.4,72.6,0l18.4-9.5c7-3.6,19.2-3.6,26.1,0
			l19.1,9.9c20,10.4,52.6,10.4,72.6,0l18.4-9.5c8.3-3.7,17.8-3.7,26.2,0l19.1,9.9c9.7,5,22.6,7.8,36.3,7.8s26.6-2.8,36.3-7.8
			l18.4-9.5c7.2-3.7,18.9-3.7,26.2,0l19.1,9.9c20,10.4,52.6,10.3,72.6,0l18.4-9.5c8.3-3.7,17.8-3.7,26.1,0l19.1,9.9
			c9.7,5,22.6,7.8,36.3,7.8s26.6-2.8,36.3-7.8l18.4-9.5c7.2-3.7,18.9-3.7,26.2,0l19.1,9.9c10,5.2,23.2,7.8,36.3,7.8S918,80,928,74.8
			l18.4-9.5c1.9-0.9,3.9-1.6,6-2.1c6.7-1.4,14.6-0.7,20,2.1l19.1,9.9c20,10.4,52.6,10.3,72.6,0l18.4-9.5c7-3.6,19.2-3.6,26.2,0
			l19.1,9.9c20,10.4,52.6,10.4,72.6,0l18.4-9.5c7.2-3.7,18.9-3.7,26.1,0L1264,76c20,10.4,52.6,10.4,72.6,0l18.4-9.5
			c8.3-3.7,17.8-3.7,26.2,0l19.1,9.9c20,10.3,52.6,10.4,72.6,0l18.4-9.5c7.2-3.7,18.9-3.7,26.1,0l19.1,9.9c20,10.3,52.6,10.4,72.6,0
			l18.4-9.5c8.3-3.7,17.8-3.7,26.2,0l19.1,9.9c9.7,5,22.6,7.8,36.3,7.8l0,0c13.7,0,26.6-2.8,36.3-7.8l18.4-9.5
			c7.2-3.7,18.9-3.7,26.2,0l19.1,9.9c9.7,5,22.6,7.8,36.3,7.8s26.6-2.8,36.3-7.8l18.4-9.5c4.1-1.9,8.6-2.9,13.1-2.8h0.3
			c1.8,0,4.7-0.2,6.5-0.5L1920,48.2L1920,48.2z"/>
		<path id="Trazado_151_00000000185773798172312480000006448142853384340625_" class="st0" d="M1920,32.8c-1.7-0.3-3.4-0.4-5.1-0.5
			l0,0h-0.4c-13.7,0-26.6,2.8-36.3,7.8l-18.4,9.5c-7.2,3.7-18.9,3.7-26.1,0l-19.1-9.9c-20-10.3-52.6-10.3-72.6,0l-18.4,9.5
			c-8.3,3.7-17.8,3.7-26.2,0l-19.1-9.9c-9.7-5-22.6-7.8-36.3-7.8s-26.6,2.8-36.3,7.8l-18.4,9.5c-7,3.6-19.2,3.6-26.2,0l-19.1-9.9
			c-20-10.4-52.6-10.4-72.6,0l-18.4,9.5c-7.2,3.7-18.9,3.7-26.2,0l-19.1-9.9c-9.7-5-22.6-7.8-36.3-7.8l0,0
			c-13.7,0-26.6,2.8-36.3,7.8l-18.4,9.5c-7,3.6-19.2,3.6-26.1,0l-19.1-9.9c-20-10.4-52.6-10.4-72.6,0l-18.4,9.5
			c-7.2,3.7-18.9,3.7-26.2,0l-19.1-9.9c-9.7-5-22.6-7.8-36.3-7.8s-26.6,2.8-36.3,7.8l-18.4,9.5c-7.2,3.7-18.9,3.7-26.2,0l-18.9-9.9
			c-15.1-7.8-37.2-9.7-55.8-5.8c-5.9,1.2-11.6,3.1-17,5.8l-11.5,6l-6.7,3.5c-7,3.6-19.2,3.6-26.1,0l-19.1-9.9
			c-20-10.4-52.6-10.3-72.6,0L769,46.7c-7,3.6-19.2,3.6-26.2,0l-19.1-9.9c-9.7-5-22.6-7.8-36.3-7.8l0,0c-13.7,0-26.6,2.8-36.3,7.8
			l-18.5,9.6c-7,3.6-19.2,3.6-26.2,0l-19.1-9.9c-9.7-5-22.6-7.8-36.3-7.8s-26.6,2.8-36.3,7.8L496.3,46c-8.3,3.7-17.8,3.7-26.2,0
			L451,36.1c-9.7-5-22.6-7.8-36.3-7.8s-26.6,2.8-36.3,7.8L360,45.6c-7.2,3.7-18.9,3.7-26.2,0l-19.1-9.9c-9.7-5-22.6-7.8-36.3-7.8
			s-26.6,2.8-36.3,7.8l-18.4,9.5c-7.2,3.7-18.9,3.7-26.2,0l-19.3-9.8c-20-10.4-52.6-10.4-72.6,0l-18.4,9.5c-7.2,3.7-18.9,3.7-26.2,0
			L41.9,35c-9.8-5.1-22.7-7.8-36.8-7.8c-1.7,0-3.4,0.2-5.1,0.4v16.1c1.7,0.3,3.5,0.4,5.2,0.4h0.2C10,44,14.5,45,18.7,46.9l19.1,9.9
			c20,10.4,52.6,10.4,72.6,0l18.4-9.5c7-3.6,19.2-3.6,26.2,0l19.1,9.9c20,10.3,52.6,10.4,72.6,0l18.4-9.5c7-3.6,19.2-3.6,26.1,0
			l19.1,9.9c20,10.4,52.6,10.4,72.6,0l18.4-9.5c8.3-3.7,17.8-3.7,26.2,0l19.1,9.9c9.7,5,22.6,7.8,36.3,7.8s26.6-2.8,36.3-7.8
			l18.4-9.5c7.2-3.7,18.9-3.7,26.2,0l19.1,9.9c20,10.4,52.6,10.3,72.6,0l18.4-9.5c8.3-3.7,17.8-3.7,26.1,0l19.1,9.9
			c9.7,5,22.6,7.8,36.3,7.8s26.6-2.8,36.3-7.8l18.4-9.5c7.2-3.7,18.9-3.7,26.2,0l19.1,9.9c10,5.2,23.2,7.8,36.3,7.8
			s26.3-2.6,36.3-7.8l18.4-9.5c1.9-0.9,3.9-1.6,6-2.1c6.7-1.4,14.6-0.7,20,2.1l19.1,9.9c20,10.4,52.6,10.3,72.6,0l18.4-9.5
			c7-3.6,19.2-3.6,26.2,0l19.1,9.9c20,10.4,52.6,10.4,72.6,0l18.4-9.5c7.2-3.7,18.9-3.7,26.1,0l19.1,9.9c20,10.4,52.6,10.4,72.6,0
			l18.4-9.5c8.3-3.7,17.8-3.7,26.2,0l19.1,9.9c20,10.3,52.6,10.4,72.6,0l18.4-9.5c7.2-3.7,18.9-3.7,26.1,0l19.1,9.9
			c20,10.3,52.6,10.4,72.6,0l18.4-9.5c8.3-3.7,17.8-3.7,26.2,0l19.1,9.9c9.7,5,22.6,7.8,36.3,7.8l0,0c13.7,0,26.6-2.8,36.3-7.8
			l18.4-9.5c7.2-3.7,18.9-3.7,26.2,0l19.1,9.9c9.7,5,22.6,7.8,36.3,7.8s26.6-2.8,36.3-7.8l18.4-9.5c4.1-1.9,8.6-2.9,13.1-2.8h0.3
			c1.8,0,4.7-0.3,6.5-0.6V32.8z"/>
		<path id="Trazado_152_00000153695840044559956340000000263872938151354780_" class="st0" d="M1920,19.4c-1.7-0.3-3.4-0.4-5.1-0.5
			l0,0h-0.4c-13.7,0-26.6,2.8-36.3,7.8l-18.4,9.5c-7.2,3.7-18.9,3.7-26.1,0l-19.1-9.9c-20-10.3-52.6-10.3-72.6,0l-18.4,9.5
			c-8.3,3.7-17.8,3.7-26.2,0l-19.1-9.9c-9.7-5-22.6-7.8-36.3-7.8l0,0c-13.7,0-26.6,2.8-36.3,7.8l-18.4,9.5c-7,3.6-19.2,3.6-26.2,0
			l-19.1-9.9c-20-10.4-52.6-10.4-72.6,0L1451,35c-7.2,3.7-18.9,3.7-26.2,0l-19.1-9.9c-9.7-5-22.6-7.8-36.3-7.8l0,0
			c-13.7,0-26.6,2.8-36.3,7.8l-18.4,9.5c-7,3.6-19.2,3.6-26.1,0l-19.1-9.9c-20-10.4-52.6-10.4-72.6,0l-18.4,9.5
			c-7.2,3.7-18.9,3.7-26.2,0l-19.1-9.9c-9.7-5-22.6-7.8-36.3-7.8s-26.6,2.8-36.3,7.8l-18.4,9.5c-7.2,3.7-18.9,3.7-26.2,0l-18.9-9.9
			c-15.1-7.8-37.2-9.7-55.8-5.8c-5.9,1.2-11.6,3.1-17,5.8l-11.5,6l-6.7,3.5c-7,3.6-19.2,3.6-26.1,0l-19.1-9.9
			c-20-10.4-52.6-10.3-72.6,0L769,33.3c-7,3.6-19.2,3.6-26.2,0l-19.1-9.9c-9.7-5-22.6-7.8-36.3-7.8l0,0c-13.7,0-26.6,2.8-36.3,7.8
			l-18.4,9.5c-7,3.6-19.2,3.6-26.2,0L587.4,23c-9.7-5-22.6-7.8-36.3-7.8S524.5,18,514.8,23l-18.4,9.5c-8.3,3.7-17.8,3.7-26.2,0
			L451,22.7c-9.7-5-22.6-7.8-36.3-7.8s-26.6,2.8-36.3,7.8L360,32.2c-7.2,3.7-18.9,3.7-26.2,0l-19.1-9.9c-9.7-5-22.6-7.8-36.3-7.8
			s-26.6,2.8-36.3,7.8l-18.4,9.5c-7.2,3.7-18.9,3.7-26.2,0l-19.1-9.9c-20-10.4-52.6-10.4-72.6,0l-18.4,9.5c-7.2,3.7-18.9,3.7-26.2,0
			l-19.1-9.9c-9.8-5.1-22.7-7.8-36.8-7.8c-1.7,0-3.6,0.2-5.3,0.4v16.3c1.7,0.3,3.7,0.4,5.4,0.4h0.2c4.6-0.1,9.1,0.9,13.3,2.8
			L38,43.5c20,10.4,52.6,10.4,72.6,0L129,34c7-3.6,19.2-3.6,26.2,0l19.1,9.9c20,10.3,52.6,10.4,72.6,0l18.4-9.5
			c7-3.6,19.2-3.6,26.1,0l19.1,9.9c20,10.4,52.6,10.4,72.6,0l18.4-9.5c8.3-3.7,17.8-3.7,26.2,0l19.1,9.9c9.7,5,22.6,7.8,36.3,7.8
			s26.6-2.8,36.3-7.8l18.4-9.5c7.2-3.7,18.9-3.7,26.2,0l19.1,9.9c20,10.4,52.6,10.3,72.6,0l18.4-9.5c8.3-3.7,17.8-3.7,26.1,0
			l19.1,9.9c9.7,5,22.6,7.8,36.3,7.8s26.6-2.8,36.3-7.8l18.4-9.5c7.2-3.7,18.9-3.7,26.2,0l19.1,9.9c10,5.2,23.2,7.8,36.3,7.8
			s26.3-2.6,36.3-7.8l18.4-9.5c1.9-0.9,3.9-1.6,6-2.1c6.7-1.4,14.6-0.7,20,2.1l19.1,9.9c20,10.4,52.6,10.3,72.6,0l18.4-9.5
			c7-3.6,19.2-3.6,26.2,0l19.1,9.9c20,10.4,52.6,10.4,72.6,0l18.4-9.5c7.2-3.7,18.9-3.7,26.1,0l19.1,9.9c20,10.4,52.6,10.4,72.6,0
			l18.4-9.5c8.3-3.7,17.8-3.7,26.2,0l19.1,9.9c20,10.3,52.6,10.4,72.6,0l18.4-9.5c7.2-3.7,18.9-3.7,26.1,0l19.1,9.9
			c20,10.3,52.6,10.4,72.6,0l18.4-9.5c8.3-3.7,17.8-3.7,26.2,0l19.1,9.9c9.7,5,22.6,7.8,36.3,7.8l0,0c13.7,0,26.6-2.8,36.3-7.8
			l19.4-9.9c7.2-3.7,18.9-3.7,26.2,0l19.1,9.9c9.7,5,22.6,7.8,36.3,7.8s26.6-2.8,36.3-7.8l18.4-9.5c4.1-1.9,8.6-2.9,13.1-2.8h0.3
			c1.8,0,3.5-0.1,5.3-0.4L1920,19.4L1920,19.4z"/>
		<path id="Trazado_153_00000163772468719311349250000015513603217015246992_" class="st0" d="M1920,4c-1.7-0.3-3.4-0.4-5.1-0.5l0,0
			h-0.4c-13.7,0-26.6,2.8-36.3,7.8l-18.4,9.5c-7.2,3.7-18.9,3.7-26.1,0l-19.1-9.9c-20-10.3-52.6-10.3-72.6,0l-18.4,9.5
			c-4.1,1.9-8.6,2.9-13.1,2.8c-4.5,0.1-9-0.9-13.1-2.8l-19.1-9.9c-9.7-5-22.6-7.8-36.3-7.8l0,0c-13.7,0-26.6,2.8-36.3,7.8l-18.4,9.5
			c-7,3.6-19.2,3.6-26.2,0l-19.1-9.9c-20-10.4-52.6-10.4-72.6,0l-18.4,9.5c-7.2,3.7-18.9,3.7-26.2,0l-19.1-9.9
			c-9.7-5-22.6-7.8-36.3-7.8l0,0c-13.7,0-26.6,2.8-36.3,7.8l-18.4,9.5c-7,3.6-19.2,3.6-26.1,0l-19.1-9.9c-20-10.4-52.6-10.4-72.6,0
			l-18.4,9.5c-7.2,3.7-18.9,3.7-26.2,0l-19.1-9.9c-9.7-5-22.6-7.8-36.3-7.8s-26.6,2.8-36.3,7.8l-18.4,9.5c-7.2,3.7-18.9,3.7-26.2,0
			l-18.9-9.9c-15.1-7.8-37.2-9.7-55.8-5.8c-5.9,1.2-11.6,3.1-17,5.8l-11.5,6l-6.7,3.5c-7,3.6-19.2,3.6-26.1,0l-19.9-9.6
			c-20-10.4-52.6-10.3-72.6,0L769,17.9c-7,3.6-19.2,3.6-26.2,0L723.7,8c-9.7-5-22.6-7.8-36.3-7.8l0,0c-13.7,0-26.6,2.8-36.3,7.8
			l-18.4,9.5c-7,3.6-19.2,3.6-26.2,0l-19.1-9.9c-9.7-5-22.6-7.8-36.3-7.8s-26.6,2.8-36.3,7.8l-18.4,9.5c-4.1,1.9-8.6,2.9-13.1,2.8
			c-4.5,0.1-9-0.9-13.1-2.8L451,7.3c-9.7-5-22.6-7.8-36.3-7.8S388,2.3,378.3,7.3l-18.4,9.5c-7.2,3.7-18.9,3.7-26.2,0l-19.1-9.9
			c-9.7-5-22.6-7.8-36.3-7.8S251.7,1.9,242,6.9l-18.5,9.5c-7.2,3.7-18.9,3.7-26.2,0l-19.1-9.9c-20-10.4-52.6-10.4-72.6,0L87.2,16
			C80,19.7,68.3,19.7,61,16L41.9,6.2C32,1.1,19.2-1.6,5.1-1.6C3.4-1.6,1.7-1.4,0-1.2v16.1c1.7,0.3,3.5,0.5,5.2,0.5h0.2
			c4.6-0.1,9.1,0.9,13.3,2.8l19.1,9.9c20,10.4,52.6,10.4,72.6,0l18.4-9.5c7-3.6,19.2-3.6,26.2,0l19.1,9.9c20,10.3,52.6,10.4,72.6,0
			l18.4-9.5c7-3.6,19.2-3.6,26.1,0l19.1,9.9c20,10.4,52.6,10.4,72.6,0l18.4-9.5c8.3-3.7,17.8-3.7,26.2,0l19.1,9.9
			c9.7,5,22.6,7.8,36.3,7.8s26.6-2.8,36.3-7.8l18.4-9.5c7.2-3.7,18.9-3.7,26.2,0l19.1,9.9c20,10.4,52.6,10.3,72.6,0l18.4-9.5
			c8.3-3.7,17.8-3.7,26.1,0l19.1,9.9c9.7,5,22.6,7.8,36.3,7.8s26.6-2.8,36.3-7.8l18.4-9.5c7.2-3.7,18.9-3.7,26.2,0l19.1,9.9
			c10,5.2,23.2,7.8,36.3,7.8s26.3-2.6,36.3-7.8l18.4-9.5c1.9-0.9,3.9-1.6,6-2.1c6.7-1.4,14.6-0.7,20,2.1l19.1,9.9
			c20,10.4,52.6,10.3,72.6,0l18.4-9.5c7-3.6,19.2-3.6,26.2,0l19.1,9.9c20,10.4,52.6,10.4,72.6,0l18.4-9.5c7.2-3.7,18.9-3.7,26.1,0
			l19.1,9.9c20,10.4,52.6,10.4,72.6,0l18.4-9.5c8.3-3.7,17.8-3.7,26.2,0l19.1,9.9c20,10.3,52.6,10.4,72.6,0l18.4-9.5
			c7.2-3.7,18.9-3.7,26.1,0l19.1,9.9c20,10.3,52.6,10.4,72.6,0l18.4-9.5c8.3-3.7,17.8-3.7,26.2,0l19.1,9.9c9.7,5,22.6,7.8,36.3,7.8
			l0,0c13.7,0,26.6-2.8,36.3-7.8l18.4-9.5c7.2-3.7,18.9-3.7,26.2,0l19.1,9.9c9.7,5,22.6,7.8,36.3,7.8s26.6-2.8,36.3-7.8l18.4-9.5
			c4.1-1.9,8.6-2.9,13.1-2.8h0.3c1.8,0,4.7-0.3,6.5-0.6L1920,4L1920,4z"/>
	</g>
	<g>
		<path class="st0" d="M1404.8,124.6c-9.6-4.7-22.1-7.3-35.4-7.3c-13.3,0-25.8,2.6-35.4,7.3H1404.8z"/>
		<path class="st0" d="M1540.3,124.6c-19.5-9.2-49.6-9.2-69.1,0H1540.3z"/>
		<path class="st0" d="M1133.9,124.6l-0.7-0.3c-9.7-5-22.6-7.8-36.3-7.8s-26.6,2.8-36.3,7.8l-0.7,0.3H1133.9z"/>
		<path class="st0" d="M1269.4,124.6c-20-10.3-52.4-10.3-72.3,0H1269.4z"/>
		<path class="st0" d="M1675.7,124.6c-9.3-4.2-21.2-6.5-33.7-6.5s-24.3,2.3-33.7,6.5H1675.7z"/>
		<path class="st0" d="M1920,124.6v-5.2c-1.7-0.3-3.4-0.4-5.1-0.5h-0.4c-11.7,0-22.8,2-31.8,5.7H1920z"/>
		<path class="st0" d="M1811,124.6c-18.9-8.1-46.6-8.1-65.5,0H1811z"/>
		<path class="st0" d="M319.1,124.6l-4.5-2.3c-9.7-5-22.6-7.8-36.3-7.8c-13.7,0-26.7,2.8-36.4,7.8l-4.5,2.3H319.1z"/>
		<path class="st0" d="M454.8,124.6l-3.8-1.9c-9.7-5-22.6-7.8-36.3-7.8c-13.7,0-26.6,2.8-36.3,7.8l-3.8,1.9H454.8z"/>
		<path class="st0" d="M183.5,124.6l-5.3-2.7c-20-10.4-52.6-10.4-72.6,0l-5.3,2.7H183.5z"/>
		<path class="st0" d="M48,124.6l-6.1-3.1c-9.8-5.1-22.7-7.8-36.8-7.8c-1.7,0-3.4,0.2-5.1,0.4v10.5H48z"/>
		<path class="st0" d="M998.5,124.6l-1.4-0.7c-15.1-7.8-37.2-9.7-55.8-5.8c-5.9,1.2-11.6,3.1-17,5.8l-1.4,0.7H998.5z"/>
		<path class="st0" d="M863.1,124.6l-2.2-1.1c-20-10.4-52.6-10.3-72.6,0l-2.2,1.1H863.1z"/>
		<path class="st0" d="M726.1,124.6l-2.4-1.2c-9.7-5-22.6-7.8-36.3-7.8s-26.6,2.8-36.3,7.8l-2.4,1.2H726.1z"/>
		<path class="st0" d="M590.6,124.6l-3.2-1.6c-9.7-5-22.6-7.8-36.3-7.8s-26.6,2.8-36.3,7.8l-3.2,1.6H590.6z"/>
		<path class="st1" d="M1902.3,124.6c3.7-1.5,7.6-2.2,11.6-2.1h0.3c1.8,0,4-0.1,5.8-0.4l0-16.2c-1.7-0.3-3.4-0.4-5.1-0.5h-0.4
			c-13.7,0-26.6,2.8-36.3,7.8l-18.4,9.5c-1.6,0.8-3.5,1.5-5.5,1.9H1902.3z"/>
		<path class="st1" d="M6.1,116.9c4.6-0.1,9.1,0.9,13.3,2.8l9.5,4.9h91.8l8.8-4.5c7-3.6,19.2-3.6,26.2,0l8.8,4.5h93.3l8-4.1
			c7-3.6,19.2-3.6,26.1,0l8,4.1h94.9l7.2-3.7c8.3-3.7,17.8-3.7,26.2,0l7.2,3.7h96.4l6.5-3.3c7.2-3.7,18.9-3.7,26.2,0l6.4,3.3h98
			l5.7-2.9c8.3-3.7,17.8-3.7,26.1,0l5.7,2.9h99.5l4.9-2.5c7.2-3.7,18.9-3.7,26.2,0l4.9,2.5H943l4.1-2.1c1.9-0.9,3.9-1.6,6-2.1
			c6.7-1.4,14.6-0.7,20,2.1l4.1,2.1h102.6l3.4-1.7c7-3.6,19.2-3.6,26.2,0l3.4,1.7h104.2l2.6-1.3c7.2-3.7,18.9-3.7,26.1,0l2.6,1.3
			h105.7l1.8-0.9c8.3-3.7,17.8-3.7,26.2,0l1.8,0.9H1491l1-0.5c7.2-3.7,18.9-3.7,26.1,0l1,0.5h108.8l0.3-0.1c8.3-3.7,17.8-3.7,26.2,0
			l0.3,0.1h50.6c-2.7-0.4-5.3-1.2-7.9-2.3l-19.1-9.9c-9.7-5-22.6-7.8-36.3-7.8s-26.6,2.8-36.3,7.8l-18.4,9.5c-7,3.6-19.2,3.6-26.2,0
			L1542,112c-20-10.4-52.6-10.4-72.6,0l-18.4,9.5c-7.2,3.7-18.9,3.7-26.2,0l-19.1-9.9c-9.7-5-22.6-7.8-36.3-7.8
			c-13.7,0-26.6,2.8-36.3,7.8l-18.4,9.5c-7,3.6-19.2,3.6-26.1,0l-19.6-9.7c-20-10.4-52.6-10.4-72.6,0l-18.4,9.5
			c-7.2,3.7-18.9,3.7-26.2,0l-19.1-9.9c-9.7-5-22.6-7.8-36.3-7.8s-26.6,2.8-36.3,7.8l-18.4,9.5c-7.2,3.7-18.9,3.7-26.2,0l-18.9-9.9
			c-15.1-7.8-37.2-9.7-55.8-5.8c-5.9,1.2-11.6,3.1-17,5.8l-11.5,6l-6.7,3.5c-7,3.6-19.2,3.6-26.1,0l-19.1-9.9
			c-20-10.4-52.6-10.3-72.6,0l-18.4,9.5c-7,3.6-19.2,3.6-26.2,0l-19.1-9.9c-9.7-5-22.6-7.8-36.3-7.8s-26.6,2.8-36.3,7.8l-18.4,9.5
			c-7,3.6-19.2,3.6-26.2,0l-19.1-9.9c-9.7-5-22.6-7.8-36.3-7.8s-26.6,2.8-36.3,7.8l-18.4,9.5c-8.3,3.7-17.8,3.7-26.2,0l-19.1-9.9
			c-9.7-5-22.6-7.8-36.3-7.8c-13.7,0-26.6,2.8-36.3,7.8l-18.4,9.5c-7.2,3.7-18.9,3.7-26.2,0l-19.1-9.9c-9.7-5-22.6-7.8-36.3-7.8
			c-13.7,0-26.6,2.8-36.3,7.8l-18.4,9.5c-7.2,3.7-18.9,3.7-26.2,0l-19.1-9.9c-20-10.4-52.6-10.4-72.6,0l-18.4,9.5
			c-7.2,3.7-18.9,3.7-26.2,0l-19.1-9.9c-9.8-5.1-22.7-7.8-36.8-7.8c-1.7,0-4.1,0.3-5.8,0.5v16c1.7,0.3,4.2,0.4,5.9,0.4H6.1z"/>
		<path class="st1" d="M1765.1,124.6c7-3.3,17.9-3.3,25.1,0h49.1c-2-0.5-3.9-1.1-5.5-1.9l-19.1-9.9c-20-10.3-52.6-10.3-72.6,0
			l-18.4,9.5c-2.5,1.1-5.1,1.9-7.8,2.3H1765.1z"/>
		<path class="st0" d="M5.4,101.8c4.6-0.1,9.1,0.9,13.3,2.8l19.1,9.9c20,10.4,52.6,10.4,72.6,0l18.4-9.5c7-3.6,19.2-3.6,26.2,0
			l19.1,9.9c20,10.3,52.6,10.4,72.6,0l18.4-9.5c7-3.6,19.2-3.6,26.1,0l19.1,9.9c20,10.4,52.6,10.4,72.6,0l18.4-9.5
			c8.3-3.7,17.8-3.7,26.2,0l19.1,9.9c9.7,5,22.6,7.8,36.3,7.8c13.7,0,26.6-2.8,36.3-7.8l18.4-9.5c7.2-3.7,18.9-3.7,26.2,0l19.1,9.9
			c20,10.4,52.6,10.3,72.6,0l18.4-9.5c8.3-3.7,17.8-3.7,26.1,0l19.1,9.9c9.7,5,22.6,7.8,36.3,7.8s26.6-2.8,36.3-7.8l18.4-9.5
			c7.2-3.7,18.9-3.7,26.2,0l19.1,9.9c9.2,4.8,21,7.3,33,7.7h6.6c12-0.4,23.8-3,33-7.7l18.4-9.5c1.9-0.9,3.9-1.6,6-2.1
			c6.7-1.4,14.6-0.7,20,2.1l19.1,9.9c7.7,4,17.1,6.4,27.1,7.3h18.3c10-0.9,19.6-3.4,27.3-7.3l18.4-9.5c7-3.6,19.2-3.6,26.2,0
			l19.1,9.9c6.7,3.5,14.8,5.8,23.3,6.9h25.9c8.6-1.2,16.7-3.5,23.3-6.9l18.4-9.5c7.2-3.7,18.9-3.7,26.1,0l19.1,9.9
			c6,3.1,13.1,5.3,20.7,6.5h31.2c7.6-1.2,14.7-3.4,20.7-6.5l18.4-9.5c8.3-3.7,17.8-3.7,26.2,0l19.1,9.9c5.5,2.8,11.8,4.9,18.7,6.1
			h35.4c6.8-1.3,13.1-3.3,18.5-6.1l18.4-9.5c7.2-3.7,18.9-3.7,26.1,0l19.1,9.9c4.9,2.5,10.6,4.4,16.7,5.7h39.4
			c6-1.3,11.6-3.2,16.5-5.7l18.4-9.5c8.3-3.7,17.8-3.7,26.2,0l19.1,9.9c4.3,2.2,9.3,4,14.8,5.3h43.1c5.4-1.3,10.4-3.1,14.8-5.3
			l18.4-9.5c7.2-3.7,18.9-3.7,26.2,0l19.1,9.9c3.9,2,8.4,3.7,13.2,4.9h46.2c4.8-1.3,9.3-2.9,13.2-4.9l18.4-9.5
			c4.1-1.9,8.6-2.9,13.1-2.8h0.3c1.8,0,4.7-0.4,6.5-0.7l0-16.2c-1.7-0.3-3.4-0.4-5.1-0.5h-0.4c-13.7,0-26.6,2.8-36.3,7.8l-18.4,9.5
			c-7.2,3.7-18.9,3.7-26.1,0l-19.1-9.9c-20-10.3-52.6-10.3-72.6,0l-18.4,9.5c-8.3,3.7-17.8,3.7-26.2,0l-19.1-9.9
			c-9.7-5-22.6-7.8-36.3-7.8s-26.6,2.8-36.3,7.8l-18.4,9.5c-7,3.6-19.2,3.6-26.2,0l-19.1-9.9c-20-10.4-52.6-10.4-72.6,0l-18.4,9.5
			c-7.2,3.7-18.9,3.7-26.2,0l-19.1-9.9c-9.7-5-22.6-7.8-36.3-7.8c-13.7,0-26.6,2.8-36.3,7.8l-18.4,9.5c-7,3.6-19.2,3.6-26.1,0
			l-19.1-9.9c-20-10.4-52.6-10.4-72.6,0l-18.4,9.5c-7.2,3.7-18.9,3.7-26.2,0l-19.1-9.9c-9.7-5-22.6-7.8-36.3-7.8s-26.6,2.8-36.3,7.8
			l-18.4,9.5c-7.2,3.7-18.9,3.7-26.2,0L997.1,95c-15.1-7.8-37.2-9.7-55.8-5.8c-5.9,1.2-11.6,3.1-17,5.8l-11.5,6l-6.7,3.5
			c-7,3.6-19.2,3.6-26.1,0l-19.1-9.9c-20-10.4-52.6-10.3-72.6,0l-19.3,9.8c-7,3.6-19.2,3.6-26.2,0l-19.1-9.9
			c-9.7-5-22.6-7.8-36.3-7.8s-26.6,2.8-36.3,7.8l-18.4,9.5c-7,3.6-19.2,3.6-26.2,0l-19.1-9.9c-9.7-5-22.6-7.8-36.3-7.8
			s-26.6,2.8-36.3,7.8l-18.4,9.5c-8.3,3.7-17.8,3.7-26.2,0L451,93.8c-9.7-5-22.6-7.8-36.3-7.8c-13.7,0-26.6,2.8-36.3,7.8l-18.4,9.5
			c-7.2,3.7-18.9,3.7-26.2,0l-19.2-9.9c-9.7-5-22.6-7.8-36.3-7.8c-13.7,0-26.7,2.8-36.4,7.8l-18.4,9.5c-7.2,3.7-18.9,3.7-26.2,0
			L178.2,93c-20-10.4-52.6-10.4-72.6,0l-18.4,9.5c-7.2,3.7-18.9,3.7-26.2,0l-19.1-9.9c-9.8-5.1-22.7-7.8-36.8-7.8
			c-1.7,0-3.4,0.2-5.1,0.4v16.2c1.7,0.3,3.5,0.4,5.2,0.4H5.4z"/>
		<path id="Trazado_148_00000166674067815523278600000004493724039353864096_" class="st1" d="M1920,77.1c-1.7-0.3-3.4-0.4-5.1-0.5
			l0,0h-0.4c-13.7,0-26.6,2.8-36.3,7.8l-18.4,9.5c-7.2,3.7-18.9,3.7-26.1,0l-19.1-9.9c-20-10.3-52.6-10.3-72.6,0l-18.4,9.5
			c-8.3,3.7-17.8,3.7-26.2,0l-19.1-9.9c-9.7-5-22.6-7.8-36.3-7.8s-26.6,2.8-36.3,7.8l-18.4,9.5c-7,3.6-19.2,3.6-26.2,0l-19.1-9.9
			c-20-10.4-52.6-10.4-72.6,0l-18.4,9.5c-7.2,3.7-18.9,3.7-26.2,0l-19.1-9.9c-9.7-5-22.6-7.8-36.3-7.8l0,0
			c-13.7,0-26.6,2.8-36.3,7.8l-18.4,9.5c-7,3.6-19.2,3.6-26.1,0l-19.1-9.9c-20-10.4-52.6-10.4-72.6,0l-18.4,9.5
			c-7.2,3.7-18.9,3.7-26.2,0l-19.1-9.9c-9.7-5-22.6-7.8-36.3-7.8s-26.6,2.8-36.3,7.8l-18.4,9.5c-7.2,3.7-18.9,3.7-26.2,0l-18.9-9.9
			c-15.1-7.8-37.2-9.7-55.8-5.8c-5.9,1.2-11.6,3.1-17,5.8l-11.5,6l-6.7,3.5c-7,3.6-19.2,3.6-26.1,0l-19.1-9.9
			c-20-10.4-52.6-10.3-72.6,0L769,91c-7,3.6-19.2,3.6-26.2,0l-19.1-9.9c-9.7-5-22.6-7.8-36.3-7.8l0,0c-13.7,0-26.6,2.8-36.3,7.8
			l-18.4,9.5c-7,3.6-19.2,3.6-26.2,0l-19.1-9.9c-9.7-5-22.6-7.8-36.3-7.8s-26.6,2.8-36.3,7.8l-18.4,9.5c-8.3,3.7-17.8,3.7-26.2,0
			L451,80.4c-9.7-5-22.6-7.8-36.3-7.8s-26.7,2.8-36.4,7.8l-18.4,9.5c-7.2,3.7-18.9,3.7-26.2,0L314.6,80c-9.7-5-22.6-7.8-36.3-7.8
			S251.7,75,242,80l-18.4,9.5c-7.2,3.7-18.9,3.7-26.2,0l-19.1-9.9c-20-10.4-52.6-10.4-72.6,0l-18.4,9.5c-7.2,3.7-18.9,3.7-26.2,0
			L42,79.2c-9.8-5.1-22.7-7.8-36.8-7.8c-1.7,0-3.5,0.2-5.2,0.4v16.1c1.7,0.3,3.6,0.4,5.3,0.4h0.2c4.6-0.1,9.1,0.9,13.3,2.8l19.1,9.9
			c20,10.4,52.6,10.4,72.6,0l18.4-9.5c7-3.6,19.2-3.6,26.2,0l19.1,9.9c20,10.3,52.6,10.4,72.6,0l18.4-9.5c7-3.6,19.2-3.6,26.1,0
			l19.1,9.9c20,10.4,52.6,10.4,72.6,0l18.4-9.5c8.3-3.7,17.8-3.7,26.2,0l19.1,9.9c9.7,5,22.6,7.8,36.3,7.8s26.6-2.8,36.3-7.8
			l18.4-9.5c7.2-3.7,18.9-3.7,26.2,0l19.1,9.9c20,10.4,52.6,10.3,72.6,0l18.4-9.5c8.3-3.7,17.8-3.7,26.1,0l19.1,9.9
			c9.7,5,22.6,7.8,36.3,7.8s26.6-2.8,36.3-7.8l18.4-9.5c7.2-3.7,18.9-3.7,26.2,0l19.1,9.9c10,5.2,23.2,7.8,36.3,7.8
			s26.3-2.6,36.3-7.8l18.4-9.5c1.9-0.9,3.9-1.6,6-2.1c6.7-1.4,14.6-0.7,20,2.1l19.1,9.9c20,10.4,52.6,10.3,72.6,0l18.4-9.5
			c7-3.6,19.2-3.6,26.2,0l19.1,9.9c20,10.4,52.6,10.4,72.6,0l18.4-9.5c7.2-3.7,18.9-3.7,26.1,0l19.1,9.9c20,10.4,52.6,10.4,72.6,0
			l18.4-9.5c8.3-3.7,17.8-3.7,26.2,0l19.1,9.9c20,10.3,52.6,10.4,72.6,0l18.4-9.5c7.2-3.7,18.9-3.7,26.1,0l19.1,9.9
			c20,10.3,52.6,10.4,72.6,0l18.4-9.5c8.3-3.7,17.8-3.7,26.2,0l19.1,9.9c9.7,5,22.6,7.8,36.3,7.8l0,0c13.7,0,26.6-2.8,36.3-7.8
			l18.4-9.5c7.2-3.7,18.9-3.7,26.2,0l19.1,9.9c9.7,5,22.6,7.8,36.3,7.8s26.6-2.8,36.3-7.8l18.4-9.5c4.1-1.9,8.6-2.9,13.1-2.8h0.3
			c1.8,0,4.6-0.4,6.4-0.7L1920,77.1z"/>
		<path id="Trazado_149_00000048495155818872606680000010887376213289409961_" class="st0" d="M1920,61.6c-1.7-0.3-3.4-0.4-5.1-0.5
			l0,0h-0.4c-13.7,0-26.6,2.8-36.3,7.8l-18.4,9.5c-7.2,3.7-18.9,3.7-26.1,0l-19.1-9.9c-20-10.3-52.6-10.3-72.6,0l-18.4,9.5
			c-8.3,3.7-17.8,3.7-26.2,0l-19.1-9.9c-9.7-5-22.6-7.8-36.3-7.8s-26.6,2.8-36.3,7.8l-18.4,9.5c-7,3.6-19.2,3.6-26.2,0l-19.1-9.9
			c-20-10.4-52.6-10.4-72.6,0l-18.4,9.5c-7.2,3.7-18.9,3.7-26.2,0l-19.1-9.9c-9.7-5-22.6-7.8-36.3-7.8l0,0
			c-13.7,0-26.6,2.8-36.3,7.8l-18.4,9.5c-7,3.6-19.2,3.6-26.1,0l-19.1-9.9c-20-10.4-52.6-10.4-72.6,0l-18.4,9.5
			c-7.2,3.7-18.9,3.7-26.2,0l-19.1-9.9c-9.7-5-22.6-7.8-36.3-7.8s-26.6,2.8-36.3,7.8l-18.4,9.5c-7.2,3.7-18.9,3.7-26.2,0l-19.6-9.6
			c-15.1-7.8-37.2-9.7-55.8-5.8c-5.9,1.2-11.6,3.1-17,5.8l-11.5,6l-6.7,3.5c-7,3.6-19.2,3.6-26.1,0L860.2,66
			c-20-10.4-52.6-10.3-72.6,0L769,75.5c-7,3.6-19.2,3.6-26.2,0l-19.1-9.9c-9.7-5-22.6-7.8-36.3-7.8l0,0c-13.7,0-26.6,2.8-36.3,7.8
			l-18.4,9.5c-7,3.6-19.2,3.6-26.2,0l-19.1-9.9c-9.7-5-22.6-7.8-36.3-7.8s-26.6,2.8-36.3,7.8l-18.4,9.5c-8.3,3.7-17.8,3.7-26.2,0
			L451,64.9c-9.7-5-22.6-7.8-36.3-7.8s-26.6,2.8-36.3,7.8L360,74.4c-7.2,3.7-18.9,3.7-26.2,0l-19.1-9.9c-9.7-5-22.6-7.8-36.3-7.8
			s-26.6,2.8-36.3,7.8L223.7,74c-7.2,3.7-18.9,3.7-26.2,0l-19.1-9.9c-20-10.4-52.6-10.4-72.6,0l-18.4,9.5c-7.2,3.7-18.9,3.7-26.2,0
			l-19.1-9.9c-9.8-5.1-22.7-7.8-36.8-7.8c-1.7,0-3.6,0.2-5.3,0.4v16.1c1.7,0.3,3.7,0.4,5.4,0.4h0.2c4.6-0.1,9.1,0.9,13.3,2.8
			L38,85.5c20,10.4,52.6,10.4,72.6,0L129,76c7-3.6,19.2-3.6,26.2,0l19.1,9.9c20,10.3,52.6,10.4,72.6,0l18.4-9.5
			c7-3.6,19.2-3.6,26.1,0l19.1,9.9c20,10.4,52.6,10.4,72.6,0l18.4-9.5c8.3-3.7,17.8-3.7,26.2,0l19.1,9.9c9.7,5,22.6,7.8,36.3,7.8
			s26.6-2.8,36.3-7.8l18.4-9.5c7.2-3.7,18.9-3.7,26.2,0l19.1,9.9c20,10.4,52.6,10.3,72.6,0l18.4-9.5c8.3-3.7,17.8-3.7,26.1,0
			l19.1,9.9c9.7,5,22.6,7.8,36.3,7.8s26.6-2.8,36.3-7.8l18.4-9.5c7.2-3.7,18.9-3.7,26.2,0l19.1,9.9c10,5.2,23.2,7.8,36.3,7.8
			s26.3-2.6,36.3-7.8l18.8-9.5c1.9-0.9,3.9-1.6,6-2.1c6.7-1.4,14.6-0.7,20,2.1l19.1,9.9c20,10.4,52.6,10.3,72.6,0l18.4-9.5
			c7-3.6,19.2-3.6,26.2,0l19.1,9.9c20,10.4,52.6,10.4,72.6,0l18.4-9.5c7.2-3.7,18.9-3.7,26.1,0l19.1,9.9c20,10.4,52.6,10.4,72.6,0
			l18.4-9.5c8.3-3.7,17.8-3.7,26.2,0l19.1,9.9c20,10.3,52.6,10.4,72.6,0l18.4-9.5c7.2-3.7,18.9-3.7,26.1,0l19.1,9.9
			c20,10.3,52.6,10.4,72.6,0l18.4-9.5c8.3-3.7,17.8-3.7,26.2,0l19.1,9.9c9.7,5,22.6,7.8,36.3,7.8l0,0c13.7,0,26.6-2.8,36.3-7.8
			l18.4-9.5c7.2-3.7,18.9-3.7,26.2,0l19.1,9.9c9.7,5,22.6,7.8,36.3,7.8s26.6-2.8,36.3-7.8l18.4-9.5c4.1-1.9,8.6-2.9,13.1-2.8h0.3
			c1.8,0,4.1-0.2,5.9-0.5L1920,61.6z"/>
		<path id="Trazado_150_00000011025881041096362400000005715042726219767172_" class="st1" d="M1920,48.2c-1.7-0.3-3.4-0.4-5.1-0.5
			l0,0h-0.4c-13.7,0-26.6,2.8-36.3,7.8l-18.4,9.5c-7.2,3.7-18.9,3.7-26.1,0l-19.1-9.9c-20-10.3-52.6-10.3-72.6,0l-18.4,9.5
			c-8.3,3.7-17.8,3.7-26.2,0l-19.1-9.9c-9.7-5-22.6-7.8-36.3-7.8s-26.6,2.8-36.3,7.8l-18.7,9.7c-7,3.6-19.2,3.6-26.2,0l-19.1-9.9
			c-20-10.4-52.6-10.4-72.6,0l-18.4,9.5c-7.2,3.7-18.9,3.7-26.2,0l-19.1-9.9c-9.7-5-22.6-7.8-36.3-7.8l0,0
			c-13.7,0-26.6,2.8-36.3,7.8l-18.4,9.5c-7,3.6-19.2,3.6-26.1,0l-19.1-9.9c-20-10.4-52.6-10.4-72.6,0l-18.4,9.5
			c-7.2,3.7-18.9,3.7-26.2,0l-19.1-9.9c-9.7-5-22.6-7.8-36.3-7.8s-26.6,2.8-36.3,7.8l-18.4,9.5c-7.2,3.7-18.9,3.7-26.2,0l-18.9-9.9
			c-15.1-7.8-37.2-9.7-55.8-5.8c-5.9,1.2-11.6,3.1-17,5.8l-11.5,6l-6.7,3.5c-7,3.6-19.2,3.6-26.1,0l-19.1-9.9
			c-20-10.4-52.6-10.3-72.6,0l-19,9.7c-7,3.6-19.2,3.6-26.2,0l-19.1-9.9c-9.7-5-22.6-7.8-36.3-7.8l0,0c-13.7,0-26.6,2.8-36.3,7.8
			l-18.4,9.5c-7,3.6-19.2,3.6-26.1,0l-19.1-9.9c-9.7-5-22.6-7.8-36.3-7.8s-26.6,2.8-36.3,7.8l-18.7,9.5c-8.3,3.7-17.8,3.7-26.2,0
			l-19-9.9c-9.7-5-22.6-7.8-36.3-7.8s-26.6,2.8-36.3,7.8L360,61c-7.2,3.7-18.9,3.7-26.2,0l-19.1-9.9c-9.7-5-22.6-7.8-36.3-7.8
			s-26.6,2.8-36.3,7.8l-18.4,9.5c-7.2,3.7-18.9,3.7-26.2,0l-19.1-9.9c-20-10.4-52.6-10.4-72.6,0l-18.4,9.5c-7.2,3.7-18.9,3.7-26.2,0
			l-19.1-9.9c-10.1-4.9-22.9-7.6-37-7.6c-1.7,0-3.4,0.2-5.1,0.4v16.1c1.7,0.3,3.5,0.4,5.2,0.4h0.2c4.6-0.1,9.1,0.9,13.3,2.8l19.1,10
			c20,10.4,52.6,10.4,72.6,0l18.4-9.5c7-3.6,19.2-3.6,26.2,0l19.1,9.9c20,10.3,52.6,10.4,72.6,0l18.4-9.5c7-3.6,19.2-3.6,26.1,0
			l19.1,9.9c20,10.4,52.6,10.4,72.6,0l18.4-9.5c8.3-3.7,17.8-3.7,26.2,0l19.1,9.9c9.7,5,22.6,7.8,36.3,7.8s26.6-2.8,36.3-7.8
			l18.4-9.5c7.2-3.7,18.9-3.7,26.2,0l19.1,9.9c20,10.4,52.6,10.3,72.6,0l18.4-9.5c8.3-3.7,17.8-3.7,26.1,0l19.1,9.9
			c9.7,5,22.6,7.8,36.3,7.8s26.6-2.8,36.3-7.8l18.4-9.5c7.2-3.7,18.9-3.7,26.2,0l19.1,9.9c10,5.2,23.2,7.8,36.3,7.8S918,80,928,74.8
			l18.4-9.5c1.9-0.9,3.9-1.6,6-2.1c6.7-1.4,14.6-0.7,20,2.1l19.1,9.9c20,10.4,52.6,10.3,72.6,0l18.4-9.5c7-3.6,19.2-3.6,26.2,0
			l19.1,9.9c20,10.4,52.6,10.4,72.6,0l18.4-9.5c7.2-3.7,18.9-3.7,26.1,0L1264,76c20,10.4,52.6,10.4,72.6,0l18.4-9.5
			c8.3-3.7,17.8-3.7,26.2,0l19.1,9.9c20,10.3,52.6,10.4,72.6,0l18.4-9.5c7.2-3.7,18.9-3.7,26.1,0l19.1,9.9c20,10.3,52.6,10.4,72.6,0
			l18.4-9.5c8.3-3.7,17.8-3.7,26.2,0l19.1,9.9c9.7,5,22.6,7.8,36.3,7.8l0,0c13.7,0,26.6-2.8,36.3-7.8l18.4-9.5
			c7.2-3.7,18.9-3.7,26.2,0l19.1,9.9c9.7,5,22.6,7.8,36.3,7.8s26.6-2.8,36.3-7.8l18.4-9.5c4.1-1.9,8.6-2.9,13.1-2.8h0.3
			c1.8,0,4.7-0.2,6.5-0.5L1920,48.2L1920,48.2z"/>
		<path id="Trazado_151_00000019654934110278432050000002741668861764254653_" class="st0" d="M1920,32.8c-1.7-0.3-3.4-0.4-5.1-0.5
			l0,0h-0.4c-13.7,0-26.6,2.8-36.3,7.8l-18.4,9.5c-7.2,3.7-18.9,3.7-26.1,0l-19.1-9.9c-20-10.3-52.6-10.3-72.6,0l-18.4,9.5
			c-8.3,3.7-17.8,3.7-26.2,0l-19.1-9.9c-9.7-5-22.6-7.8-36.3-7.8s-26.6,2.8-36.3,7.8l-18.4,9.5c-7,3.6-19.2,3.6-26.2,0l-19.1-9.9
			c-20-10.4-52.6-10.4-72.6,0l-18.4,9.5c-7.2,3.7-18.9,3.7-26.2,0l-19.1-9.9c-9.7-5-22.6-7.8-36.3-7.8l0,0
			c-13.7,0-26.6,2.8-36.3,7.8l-18.4,9.5c-7,3.6-19.2,3.6-26.1,0l-19.1-9.9c-20-10.4-52.6-10.4-72.6,0l-18.4,9.5
			c-7.2,3.7-18.9,3.7-26.2,0l-19.1-9.9c-9.7-5-22.6-7.8-36.3-7.8s-26.6,2.8-36.3,7.8l-18.4,9.5c-7.2,3.7-18.9,3.7-26.2,0l-18.9-9.9
			c-15.1-7.8-37.2-9.7-55.8-5.8c-5.9,1.2-11.6,3.1-17,5.8l-11.5,6l-6.7,3.5c-7,3.6-19.2,3.6-26.1,0l-19.1-9.9
			c-20-10.4-52.6-10.3-72.6,0L769,46.7c-7,3.6-19.2,3.6-26.2,0l-19.1-9.9c-9.7-5-22.6-7.8-36.3-7.8l0,0c-13.7,0-26.6,2.8-36.3,7.8
			l-18.5,9.6c-7,3.6-19.2,3.6-26.2,0l-19.1-9.9c-9.7-5-22.6-7.8-36.3-7.8s-26.6,2.8-36.3,7.8L496.3,46c-8.3,3.7-17.8,3.7-26.2,0
			L451,36.1c-9.7-5-22.6-7.8-36.3-7.8s-26.6,2.8-36.3,7.8L360,45.6c-7.2,3.7-18.9,3.7-26.2,0l-19.1-9.9c-9.7-5-22.6-7.8-36.3-7.8
			s-26.6,2.8-36.3,7.8l-18.4,9.5c-7.2,3.7-18.9,3.7-26.2,0l-19.3-9.8c-20-10.4-52.6-10.4-72.6,0l-18.4,9.5c-7.2,3.7-18.9,3.7-26.2,0
			L41.9,35c-9.8-5.1-22.7-7.8-36.8-7.8c-1.7,0-3.4,0.2-5.1,0.4v16.1c1.7,0.3,3.5,0.4,5.2,0.4h0.2C10,44,14.5,45,18.7,46.9l19.1,9.9
			c20,10.4,52.6,10.4,72.6,0l18.4-9.5c7-3.6,19.2-3.6,26.2,0l19.1,9.9c20,10.3,52.6,10.4,72.6,0l18.4-9.5c7-3.6,19.2-3.6,26.1,0
			l19.1,9.9c20,10.4,52.6,10.4,72.6,0l18.4-9.5c8.3-3.7,17.8-3.7,26.2,0l19.1,9.9c9.7,5,22.6,7.8,36.3,7.8s26.6-2.8,36.3-7.8
			l18.4-9.5c7.2-3.7,18.9-3.7,26.2,0l19.1,9.9c20,10.4,52.6,10.3,72.6,0l18.4-9.5c8.3-3.7,17.8-3.7,26.1,0l19.1,9.9
			c9.7,5,22.6,7.8,36.3,7.8s26.6-2.8,36.3-7.8l18.4-9.5c7.2-3.7,18.9-3.7,26.2,0l19.1,9.9c10,5.2,23.2,7.8,36.3,7.8
			s26.3-2.6,36.3-7.8l18.4-9.5c1.9-0.9,3.9-1.6,6-2.1c6.7-1.4,14.6-0.7,20,2.1l19.1,9.9c20,10.4,52.6,10.3,72.6,0l18.4-9.5
			c7-3.6,19.2-3.6,26.2,0l19.1,9.9c20,10.4,52.6,10.4,72.6,0l18.4-9.5c7.2-3.7,18.9-3.7,26.1,0l19.1,9.9c20,10.4,52.6,10.4,72.6,0
			l18.4-9.5c8.3-3.7,17.8-3.7,26.2,0l19.1,9.9c20,10.3,52.6,10.4,72.6,0l18.4-9.5c7.2-3.7,18.9-3.7,26.1,0l19.1,9.9
			c20,10.3,52.6,10.4,72.6,0l18.4-9.5c8.3-3.7,17.8-3.7,26.2,0l19.1,9.9c9.7,5,22.6,7.8,36.3,7.8l0,0c13.7,0,26.6-2.8,36.3-7.8
			l18.4-9.5c7.2-3.7,18.9-3.7,26.2,0l19.1,9.9c9.7,5,22.6,7.8,36.3,7.8s26.6-2.8,36.3-7.8l18.4-9.5c4.1-1.9,8.6-2.9,13.1-2.8h0.3
			c1.8,0,4.7-0.3,6.5-0.6V32.8z"/>
		<path id="Trazado_152_00000087390729472735406290000006196502523637981101_" class="st1" d="M1920,19.4c-1.7-0.3-3.4-0.4-5.1-0.5
			l0,0h-0.4c-13.7,0-26.6,2.8-36.3,7.8l-18.4,9.5c-7.2,3.7-18.9,3.7-26.1,0l-19.1-9.9c-20-10.3-52.6-10.3-72.6,0l-18.4,9.5
			c-8.3,3.7-17.8,3.7-26.2,0l-19.1-9.9c-9.7-5-22.6-7.8-36.3-7.8l0,0c-13.7,0-26.6,2.8-36.3,7.8l-18.4,9.5c-7,3.6-19.2,3.6-26.2,0
			l-19.1-9.9c-20-10.4-52.6-10.4-72.6,0L1451,35c-7.2,3.7-18.9,3.7-26.2,0l-19.1-9.9c-9.7-5-22.6-7.8-36.3-7.8l0,0
			c-13.7,0-26.6,2.8-36.3,7.8l-18.4,9.5c-7,3.6-19.2,3.6-26.1,0l-19.1-9.9c-20-10.4-52.6-10.4-72.6,0l-18.4,9.5
			c-7.2,3.7-18.9,3.7-26.2,0l-19.1-9.9c-9.7-5-22.6-7.8-36.3-7.8s-26.6,2.8-36.3,7.8l-18.4,9.5c-7.2,3.7-18.9,3.7-26.2,0l-18.9-9.9
			c-15.1-7.8-37.2-9.7-55.8-5.8c-5.9,1.2-11.6,3.1-17,5.8l-11.5,6l-6.7,3.5c-7,3.6-19.2,3.6-26.1,0l-19.1-9.9
			c-20-10.4-52.6-10.3-72.6,0L769,33.3c-7,3.6-19.2,3.6-26.2,0l-19.1-9.9c-9.7-5-22.6-7.8-36.3-7.8l0,0c-13.7,0-26.6,2.8-36.3,7.8
			l-18.4,9.5c-7,3.6-19.2,3.6-26.2,0L587.4,23c-9.7-5-22.6-7.8-36.3-7.8S524.5,18,514.8,23l-18.4,9.5c-8.3,3.7-17.8,3.7-26.2,0
			L451,22.7c-9.7-5-22.6-7.8-36.3-7.8s-26.6,2.8-36.3,7.8L360,32.2c-7.2,3.7-18.9,3.7-26.2,0l-19.1-9.9c-9.7-5-22.6-7.8-36.3-7.8
			s-26.6,2.8-36.3,7.8l-18.4,9.5c-7.2,3.7-18.9,3.7-26.2,0l-19.1-9.9c-20-10.4-52.6-10.4-72.6,0l-18.4,9.5c-7.2,3.7-18.9,3.7-26.2,0
			l-19.1-9.9c-9.8-5.1-22.7-7.8-36.8-7.8c-1.7,0-3.6,0.2-5.3,0.4v16.3c1.7,0.3,3.7,0.4,5.4,0.4h0.2c4.6-0.1,9.1,0.9,13.3,2.8
			L38,43.5c20,10.4,52.6,10.4,72.6,0L129,34c7-3.6,19.2-3.6,26.2,0l19.1,9.9c20,10.3,52.6,10.4,72.6,0l18.4-9.5
			c7-3.6,19.2-3.6,26.1,0l19.1,9.9c20,10.4,52.6,10.4,72.6,0l18.4-9.5c8.3-3.7,17.8-3.7,26.2,0l19.1,9.9c9.7,5,22.6,7.8,36.3,7.8
			s26.6-2.8,36.3-7.8l18.4-9.5c7.2-3.7,18.9-3.7,26.2,0l19.1,9.9c20,10.4,52.6,10.3,72.6,0l18.4-9.5c8.3-3.7,17.8-3.7,26.1,0
			l19.1,9.9c9.7,5,22.6,7.8,36.3,7.8s26.6-2.8,36.3-7.8l18.4-9.5c7.2-3.7,18.9-3.7,26.2,0l19.1,9.9c10,5.2,23.2,7.8,36.3,7.8
			s26.3-2.6,36.3-7.8l18.4-9.5c1.9-0.9,3.9-1.6,6-2.1c6.7-1.4,14.6-0.7,20,2.1l19.1,9.9c20,10.4,52.6,10.3,72.6,0l18.4-9.5
			c7-3.6,19.2-3.6,26.2,0l19.1,9.9c20,10.4,52.6,10.4,72.6,0l18.4-9.5c7.2-3.7,18.9-3.7,26.1,0l19.1,9.9c20,10.4,52.6,10.4,72.6,0
			l18.4-9.5c8.3-3.7,17.8-3.7,26.2,0l19.1,9.9c20,10.3,52.6,10.4,72.6,0l18.4-9.5c7.2-3.7,18.9-3.7,26.1,0l19.1,9.9
			c20,10.3,52.6,10.4,72.6,0l18.4-9.5c8.3-3.7,17.8-3.7,26.2,0l19.1,9.9c9.7,5,22.6,7.8,36.3,7.8l0,0c13.7,0,26.6-2.8,36.3-7.8
			l19.4-9.9c7.2-3.7,18.9-3.7,26.2,0l19.1,9.9c9.7,5,22.6,7.8,36.3,7.8s26.6-2.8,36.3-7.8l18.4-9.5c4.1-1.9,8.6-2.9,13.1-2.8h0.3
			c1.8,0,3.5-0.1,5.3-0.4L1920,19.4L1920,19.4z"/>
		<path id="Trazado_153_00000093178094422341325540000010708343037499022752_" class="st0" d="M1920,4c-1.7-0.3-3.4-0.4-5.1-0.5l0,0
			h-0.4c-13.7,0-26.6,2.8-36.3,7.8l-18.4,9.5c-7.2,3.7-18.9,3.7-26.1,0l-19.1-9.9c-20-10.3-52.6-10.3-72.6,0l-18.4,9.5
			c-4.1,1.9-8.6,2.9-13.1,2.8c-4.5,0.1-9-0.9-13.1-2.8l-19.1-9.9c-9.7-5-22.6-7.8-36.3-7.8l0,0c-13.7,0-26.6,2.8-36.3,7.8l-18.4,9.5
			c-7,3.6-19.2,3.6-26.2,0l-19.1-9.9c-20-10.4-52.6-10.4-72.6,0l-18.4,9.5c-7.2,3.7-18.9,3.7-26.2,0l-19.1-9.9
			c-9.7-5-22.6-7.8-36.3-7.8l0,0c-13.7,0-26.6,2.8-36.3,7.8l-18.4,9.5c-7,3.6-19.2,3.6-26.1,0l-19.1-9.9c-20-10.4-52.6-10.4-72.6,0
			l-18.4,9.5c-7.2,3.7-18.9,3.7-26.2,0l-19.1-9.9c-9.7-5-22.6-7.8-36.3-7.8s-26.6,2.8-36.3,7.8l-18.4,9.5c-7.2,3.7-18.9,3.7-26.2,0
			l-18.9-9.9c-15.1-7.8-37.2-9.7-55.8-5.8c-5.9,1.2-11.6,3.1-17,5.8l-11.5,6l-6.7,3.5c-7,3.6-19.2,3.6-26.1,0l-19.9-9.6
			c-20-10.4-52.6-10.3-72.6,0L769,17.9c-7,3.6-19.2,3.6-26.2,0L723.7,8c-9.7-5-22.6-7.8-36.3-7.8l0,0c-13.7,0-26.6,2.8-36.3,7.8
			l-18.4,9.5c-7,3.6-19.2,3.6-26.2,0l-19.1-9.9c-9.7-5-22.6-7.8-36.3-7.8s-26.6,2.8-36.3,7.8l-18.4,9.5c-4.1,1.9-8.6,2.9-13.1,2.8
			c-4.5,0.1-9-0.9-13.1-2.8L451,7.3c-9.7-5-22.6-7.8-36.3-7.8S388,2.3,378.3,7.3l-18.4,9.5c-7.2,3.7-18.9,3.7-26.2,0l-19.1-9.9
			c-9.7-5-22.6-7.8-36.3-7.8S251.7,1.9,242,6.9l-18.5,9.5c-7.2,3.7-18.9,3.7-26.2,0l-19.1-9.9c-20-10.4-52.6-10.4-72.6,0L87.2,16
			C80,19.7,68.3,19.7,61,16L41.9,6.2C32,1.1,19.2-1.6,5.1-1.6C3.4-1.6,1.7-1.4,0-1.2v16.1c1.7,0.3,3.5,0.5,5.2,0.5h0.2
			c4.6-0.1,9.1,0.9,13.3,2.8l19.1,9.9c20,10.4,52.6,10.4,72.6,0l18.4-9.5c7-3.6,19.2-3.6,26.2,0l19.1,9.9c20,10.3,52.6,10.4,72.6,0
			l18.4-9.5c7-3.6,19.2-3.6,26.1,0l19.1,9.9c20,10.4,52.6,10.4,72.6,0l18.4-9.5c8.3-3.7,17.8-3.7,26.2,0l19.1,9.9
			c9.7,5,22.6,7.8,36.3,7.8s26.6-2.8,36.3-7.8l18.4-9.5c7.2-3.7,18.9-3.7,26.2,0l19.1,9.9c20,10.4,52.6,10.3,72.6,0l18.4-9.5
			c8.3-3.7,17.8-3.7,26.1,0l19.1,9.9c9.7,5,22.6,7.8,36.3,7.8s26.6-2.8,36.3-7.8l18.4-9.5c7.2-3.7,18.9-3.7,26.2,0l19.1,9.9
			c10,5.2,23.2,7.8,36.3,7.8s26.3-2.6,36.3-7.8l18.4-9.5c1.9-0.9,3.9-1.6,6-2.1c6.7-1.4,14.6-0.7,20,2.1l19.1,9.9
			c20,10.4,52.6,10.3,72.6,0l18.4-9.5c7-3.6,19.2-3.6,26.2,0l19.1,9.9c20,10.4,52.6,10.4,72.6,0l18.4-9.5c7.2-3.7,18.9-3.7,26.1,0
			l19.1,9.9c20,10.4,52.6,10.4,72.6,0l18.4-9.5c8.3-3.7,17.8-3.7,26.2,0l19.1,9.9c20,10.3,52.6,10.4,72.6,0l18.4-9.5
			c7.2-3.7,18.9-3.7,26.1,0l19.1,9.9c20,10.3,52.6,10.4,72.6,0l18.4-9.5c8.3-3.7,17.8-3.7,26.2,0l19.1,9.9c9.7,5,22.6,7.8,36.3,7.8
			l0,0c13.7,0,26.6-2.8,36.3-7.8l18.4-9.5c7.2-3.7,18.9-3.7,26.2,0l19.1,9.9c9.7,5,22.6,7.8,36.3,7.8s26.6-2.8,36.3-7.8l18.4-9.5
			c4.1-1.9,8.6-2.9,13.1-2.8h0.3c1.8,0,4.7-0.3,6.5-0.6L1920,4L1920,4z"/>
	</g>
</g>
</svg>
