<?xml version="1.0" encoding="UTF-8"?>
<svg xmlns="http://www.w3.org/2000/svg" viewBox="0 0 479.54 477.37">
  <g>
    <path fill="#f9af17" strokeWidth="0px" d="m476.06,46.78c4.42-4.99,4.42-12.85,0-17.84l-4.07-4.53c-1.59-1.8-1.59-4.63,0-6.42l4.22-4.69c2.17-2.42,3.36-5.67,3.32-9.04,0-.95-.31-1.81-.82-2.5-.03-.05-.07-.09-.1-.14-.1-.12-.2-.23-.3-.33-.09-.09-.18-.17-.28-.25-.06-.05-.13-.1-.19-.14-.69-.49-1.54-.8-2.48-.79h0s-.09,0-.09,0c-3.33,0-6.52,1.21-8.91,3.36l-4.52,4.09c-1.79,1.6-4.62,1.61-6.42.03l-4.72-4.2c-5.01-4.4-12.87-4.36-17.84.08l-4.51,4.09c-1.79,1.6-4.62,1.62-6.42.03l-4.72-4.2c-2.4-2.13-5.61-3.31-8.94-3.28-3.33,0-6.52,1.21-8.9,3.36l-4.51,4.09c-1.81,1.55-4.6,1.56-6.42.03l-4.72-4.2c-5.01-4.4-12.87-4.36-17.84.08l-4.51,4.09c-1.79,1.6-4.62,1.61-6.42.03l-4.72-4.2c-2.4-2.13-5.61-3.31-8.94-3.28-3.33,0-6.52,1.21-8.91,3.36l-4.52,4.09c-1.81,1.55-4.6,1.56-6.42.03l-4.72-4.2c-5.01-4.4-12.87-4.36-17.84.08l-4.51,4.08c-1.79,1.6-4.62,1.61-6.42.03l-4.72-4.2c-5.01-4.41-12.88-4.37-17.84.08l-4.51,4.09c-1.79,1.6-4.62,1.61-6.42.03l-4.66-4.22c-3.67-3.22-9.03-4.16-13.72-2.41-1.56.57-2.97,1.42-4.17,2.51l-2.83,2.58-1.64,1.49c-1.81,1.55-4.6,1.56-6.42.03l-4.72-4.2c-5.01-4.4-12.87-4.36-17.84.08l-4.52,4.09c-1.81,1.55-4.6,1.56-6.42.03l-4.72-4.2c-2.4-2.14-5.61-3.31-8.94-3.29-3.33,0-6.53,1.21-8.91,3.37l-4.51,4.09c-1.81,1.55-4.6,1.56-6.42.03l-4.72-4.21c-5.01-4.41-12.88-4.37-17.84.08l-4.51,4.09c-1.79,1.6-4.62,1.62-6.42.03l-4.72-4.2c-5.01-4.41-12.88-4.37-17.85.08l-4.51,4.09c-1.79,1.6-4.62,1.61-6.42.03l-4.71-4.2c-5.01-4.41-12.88-4.37-17.84.08l-4.51,4.09c-1.79,1.6-4.62,1.61-6.42.03l-4.72-4.2c-5.01-4.4-12.87-4.36-17.84.08l-4.52,4.09c-1.79,1.6-4.62,1.62-6.42.03l-4.71-4.2C12.87,1.16,8.73-.25,6.25.04,3.77.32,2.17,1.84,2.19,4.03h0v.09c-.02,3.33,1.18,6.53,3.32,8.92l4.07,4.53c1.59,1.8,1.59,4.63,0,6.42l-4.22,4.7c-4.42,4.99-4.42,12.85,0,17.85l4.07,4.53c1.59,1.8,1.59,4.63,0,6.42l-4.22,4.7c-2.14,2.39-3.34,5.59-3.32,8.92-.01,3.33,1.18,6.53,3.32,8.92l4.07,4.53c1.54,1.82,1.54,4.61,0,6.42l-4.22,4.7c-4.42,4.99-4.42,12.85,0,17.85l4.07,4.53c1.59,1.8,1.59,4.63,0,6.42l-4.22,4.7c-2.14,2.39-3.34,5.59-3.32,8.92-.02,3.33,1.18,6.53,3.32,8.92l4.07,4.53c1.54,1.82,1.54,4.6,0,6.42l-4.22,4.7c-4.42,4.99-4.42,12.85,0,17.85l4.06,4.53c1.59,1.8,1.59,4.63,0,6.42l-4.22,4.7c-4.43,4.99-4.43,12.86,0,17.84l4.07,4.53c1.59,1.8,1.59,4.63,0,6.42l-4.24,4.64c-3.24,3.65-4.2,9.01-2.47,13.71.56,1.56,1.41,2.98,2.49,4.18l2.57,2.84,1.48,1.65c1.54,1.82,1.54,4.6,0,6.42l-4.22,4.7c-4.42,4.99-4.42,12.85,0,17.84l4.07,4.53c1.54,1.82,1.54,4.61,0,6.42l-4.22,4.7c-2.15,2.39-3.34,5.59-3.33,8.92-.02,3.33,1.18,6.53,3.33,8.93l4.07,4.53c1.54,1.82,1.54,4.61,0,6.42l-4.23,4.7c-4.43,4.99-4.43,12.86,0,17.85l4.07,4.53c1.59,1.8,1.59,4.63,0,6.42l-4.22,4.7c-4.43,4.99-4.43,12.86,0,17.85l4.07,4.53c1.59,1.8,1.59,4.63,0,6.42l-4.23,4.7c-4.43,4.99-4.43,12.86,0,17.85l4.07,4.53c1.59,1.8,1.59,4.63,0,6.42l-4.23,4.7c-4.42,4.99-4.42,12.85,0,17.84l4.07,4.53c1.59,1.8,1.59,4.63,0,6.42l-4.22,4.69c-2.17,2.42-3.36,5.67-3.32,9.04,0,.95.31,1.81.82,2.5.03.05.07.09.1.14.1.12.2.23.3.33.09.09.18.17.28.25.06.05.13.1.19.14.69.49,1.54.8,2.48.79h0s.09,0,.09,0c3.33,0,6.52-1.21,8.91-3.36l4.52-4.09c1.79-1.6,4.62-1.61,6.42-.03l4.72,4.2c5.01,4.4,12.87,4.36,17.84-.08l4.51-4.09c1.79-1.6,4.62-1.62,6.42-.03l4.72,4.2c2.4,2.13,5.61,3.31,8.94,3.28,3.33,0,6.52-1.21,8.9-3.36l4.51-4.09c1.81-1.55,4.6-1.56,6.42-.03l4.72,4.2c5.01,4.4,12.87,4.36,17.84-.08l4.51-4.09c1.79-1.6,4.62-1.61,6.42-.03l4.72,4.2c2.4,2.13,5.61,3.31,8.94,3.28,3.33,0,6.52-1.21,8.91-3.36l4.52-4.09c1.81-1.55,4.6-1.56,6.42-.03l4.72,4.2c5.01,4.4,12.87,4.36,17.84-.08l4.51-4.08c1.79-1.6,4.62-1.61,6.42-.03l4.72,4.2c5.01,4.41,12.88,4.37,17.84-.08l4.51-4.09c1.79-1.6,4.62-1.61,6.42-.03l4.66,4.22c3.67,3.22,9.03,4.16,13.72,2.41,1.56-.57,2.97-1.42,4.17-2.51l2.83-2.58,1.64-1.49c1.81-1.55,4.6-1.56,6.42-.03l4.72,4.2c5.01,4.4,12.87,4.36,17.84-.08l4.52-4.09c1.81-1.55,4.6-1.56,6.42-.03l4.72,4.2c2.4,2.14,5.61,3.31,8.94,3.29,3.33,0,6.53-1.21,8.91-3.37l4.51-4.09c1.81-1.55,4.6-1.56,6.42-.03l4.72,4.21c5.01,4.41,12.88,4.37,17.84-.08l4.51-4.09c1.79-1.6,4.62-1.62,6.42-.03l4.72,4.2c5.01,4.41,12.88,4.37,17.85-.08l4.51-4.09c1.79-1.6,4.62-1.61,6.42-.03l4.71,4.2c5.01,4.41,12.88,4.37,17.84-.08l4.51-4.09c1.79-1.6,4.62-1.61,6.42-.03l4.72,4.2c5.01,4.4,12.87,4.36,17.84-.08l4.52-4.09c1.79-1.6,4.62-1.62,6.42-.03l4.71,4.2c2.43,2.16,6.57,3.56,9.05,3.28,2.48-.28,4.08-1.8,4.06-4h0v-.09c.02-3.33-1.18-6.53-3.32-8.92l-4.07-4.53c-1.59-1.8-1.59-4.63,0-6.42l4.22-4.7c4.42-4.99,4.42-12.85,0-17.85l-4.07-4.53c-1.59-1.8-1.59-4.63,0-6.42l4.22-4.7c2.14-2.39,3.34-5.59,3.32-8.92.01-3.33-1.18-6.53-3.32-8.92l-4.07-4.53c-1.54-1.82-1.54-4.61,0-6.42l4.22-4.7c4.42-4.99,4.42-12.85,0-17.85l-4.07-4.53c-1.59-1.8-1.59-4.63,0-6.42l4.22-4.7c2.14-2.39,3.34-5.59,3.32-8.92.01-3.33-1.18-6.53-3.32-8.92l-4.07-4.53c-1.54-1.82-1.54-4.6,0-6.42l4.22-4.7c4.42-4.99,4.42-12.85,0-17.85l-4.06-4.53c-1.59-1.8-1.59-4.63,0-6.42l4.22-4.7c4.43-4.99,4.43-12.86,0-17.84l-4.07-4.53c-1.59-1.8-1.59-4.63,0-6.42l4.24-4.64c3.24-3.65,4.2-9.01,2.47-13.71-.56-1.56-1.41-2.98-2.49-4.18l-2.57-2.84-1.48-1.65c-1.54-1.82-1.54-4.6,0-6.42l4.22-4.7c4.42-4.99,4.42-12.85,0-17.84l-4.07-4.53c-1.54-1.82-1.54-4.61,0-6.42l4.22-4.7c2.15-2.39,3.34-5.59,3.33-8.92.01-3.33-1.18-6.53-3.33-8.93l-4.07-4.53c-1.54-1.82-1.54-4.61,0-6.42l4.23-4.7c4.43-4.99,4.43-12.86,0-17.85l-4.07-4.53c-1.59-1.8-1.59-4.63,0-6.42l4.22-4.7c4.43-4.99,4.43-12.86,0-17.85l-4.07-4.53c-1.59-1.8-1.59-4.63,0-6.42l4.23-4.7c4.43-4.99,4.43-12.86,0-17.85l-4.07-4.53c-1.59-1.8-1.59-4.63,0-6.42l4.23-4.7Zm-9.36-1.01c-4.42,4.99-4.42,12.85,0,17.84l4.07,4.53c1.54,1.82,1.54,4.6,0,6.42l-4.22,4.69c-4.42,4.99-4.42,12.85,0,17.85l4.07,4.53c1.59,1.8,1.59,4.63,0,6.42l-4.22,4.7c-4.43,4.99-4.43,12.86,0,17.85l4.07,4.53c1.59,1.8,1.59,4.63,0,6.42l-4.22,4.7c-4.42,4.99-4.42,12.85,0,17.85l4.07,4.53c1.59,1.8,1.59,4.63,0,6.42l-4.22,4.7c-4.43,4.99-4.43,12.86,0,17.85l4.07,4.53c1.59,1.8,1.59,4.63,0,6.42l-4.22,4.7c-4.42,4.99-4.42,12.85,0,17.84l4.07,4.53c.38.42.68.92.88,1.46.61,1.69.26,3.6-.9,4.91l-4.22,4.7c-4.42,4.99-4.42,12.85,0,17.84l4.07,4.53c1.54,1.82,1.54,4.61,0,6.42l-4.22,4.7c-4.42,4.99-4.42,12.85,0,17.85l4.07,4.53c1.59,1.8,1.59,4.63,0,6.42l-4.22,4.7c-4.42,4.99-4.42,12.85,0,17.85l4.07,4.53c1.59,1.8,1.59,4.63,0,6.42l-4.22,4.7c-4.42,4.99-4.42,12.85,0,17.85l4.07,4.53c1.59,1.8,1.59,4.62,0,6.42l-4.22,4.7c-4.42,4.99-4.42,12.85,0,17.85l4.07,4.53c1.59,1.8,1.59,4.63,0,6.42l-4.22,4.7c-2.14,2.39-3.34,5.59-3.32,8.92-.01,3.32,1.18,6.52,3.32,8.91l4.07,4.53c1.59,1.8,1.59,4.63,0,6.42l-4.22,4.7c-3.82,4.3-4.34,10.73-1.58,15.62-4.94-2.91-11.53-2.41-15.89,1.49l-4.51,4.09c-1.81,1.55-4.6,1.56-6.42.03l-4.72-4.2c-5.01-4.4-12.87-4.36-17.84.08l-4.52,4.09c-1.81,1.55-4.6,1.56-6.42.03l-4.71-4.2c-5.01-4.4-12.87-4.36-17.84.08l-4.51,4.09c-1.79,1.6-4.62,1.62-6.42.03l-4.72-4.2c-5.01-4.41-12.88-4.37-17.84.08l-4.51,4.09c-1.79,1.6-4.62,1.61-6.42.03l-4.72-4.2c-5.01-4.4-12.87-4.36-17.84.08l-4.52,4.09c-1.79,1.6-4.62,1.61-6.42.03l-4.72-4.2c-5.01-4.41-12.88-4.37-17.84.08l-4.51,4.09c-1.79,1.6-4.62,1.61-6.42.03l-4.72-4.2c-5.01-4.4-12.87-4.36-17.84.08l-4.52,4.09c-.42.38-.92.68-1.46.88-1.68.62-3.6.27-4.91-.88l-4.72-4.2c-5.01-4.4-12.87-4.36-17.84.08l-4.52,4.09c-1.81,1.55-4.6,1.56-6.42.03l-4.72-4.2c-5.01-4.4-12.87-4.36-17.84.08l-4.51,4.09c-1.79,1.6-4.62,1.61-6.42.03l-4.72-4.2c-5.01-4.4-12.87-4.36-17.84.08l-4.51,4.09c-1.79,1.6-4.62,1.62-6.42.03l-4.72-4.2c-5.01-4.4-12.87-4.36-17.84.08l-4.52,4.09c-1.79,1.6-4.62,1.61-6.42.03l-4.72-4.2c-5.01-4.4-12.87-4.36-17.84.08l-4.52,4.09c-1.79,1.6-4.62,1.62-6.42.03l-4.72-4.2c-2.4-2.13-5.61-3.31-8.94-3.28-3.32,0-6.51,1.21-8.89,3.36l-4.51,4.09c-1.79,1.6-4.62,1.61-6.42.03l-4.72-4.2c-4.34-3.82-10.84-4.3-15.72-1.45,2.96-4.93,2.49-11.54-1.4-15.93l-4.07-4.53c-1.54-1.82-1.54-4.61,0-6.42l4.22-4.7c4.42-4.99,4.42-12.85,0-17.84l-4.07-4.53c-1.54-1.82-1.54-4.6,0-6.42l4.22-4.69c4.42-4.99,4.42-12.85,0-17.85l-4.07-4.53c-1.59-1.8-1.59-4.63,0-6.42l4.22-4.7c4.43-4.99,4.43-12.86,0-17.85l-4.07-4.53c-1.59-1.8-1.59-4.63,0-6.42l4.22-4.7c4.42-4.99,4.42-12.85,0-17.85l-4.07-4.53c-1.59-1.8-1.59-4.63,0-6.42l4.22-4.7c4.43-4.99,4.43-12.86,0-17.85l-4.07-4.53c-1.59-1.8-1.59-4.63,0-6.42l4.22-4.7c4.42-4.99,4.42-12.85,0-17.84l-4.07-4.53c-.38-.42-.68-.92-.88-1.46-.61-1.69-.26-3.6.9-4.91l4.22-4.7c4.42-4.99,4.42-12.85,0-17.84l-4.07-4.53c-1.54-1.82-1.54-4.61,0-6.42l4.22-4.7c4.42-4.99,4.42-12.85,0-17.85l-4.07-4.53c-1.59-1.8-1.59-4.63,0-6.42l4.22-4.7c4.42-4.99,4.42-12.85,0-17.85l-4.07-4.53c-1.59-1.8-1.59-4.63,0-6.42l4.22-4.7c4.42-4.99,4.42-12.85,0-17.85l-4.07-4.53c-1.59-1.8-1.59-4.62,0-6.42l4.22-4.7c4.42-4.99,4.42-12.85,0-17.85l-4.07-4.53c-1.59-1.8-1.59-4.63,0-6.42l4.22-4.7c2.14-2.39,3.34-5.59,3.32-8.92.01-3.32-1.18-6.52-3.32-8.91l-4.07-4.53c-1.59-1.8-1.59-4.63,0-6.42l4.22-4.7c3.82-4.3,4.34-10.73,1.58-15.62,4.94,2.91,11.53,2.41,15.89-1.49l4.52-4.09c1.81-1.55,4.6-1.56,6.42-.03l4.72,4.2c5.01,4.4,12.87,4.36,17.84-.08l4.52-4.09c1.81-1.55,4.6-1.56,6.42-.03l4.71,4.2c5.01,4.4,12.87,4.36,17.84-.08l4.51-4.09c1.79-1.6,4.62-1.62,6.42-.03l4.72,4.2c5.01,4.41,12.88,4.37,17.84-.08l4.51-4.09c1.79-1.6,4.62-1.61,6.42-.03l4.72,4.2c5.01,4.4,12.87,4.36,17.84-.08l4.52-4.09c1.79-1.6,4.62-1.61,6.42-.03l4.72,4.2c5.01,4.41,12.88,4.37,17.84-.08l4.51-4.09c1.79-1.6,4.62-1.61,6.42-.03l4.72,4.2c5.01,4.4,12.87,4.36,17.84-.08l4.52-4.09c.42-.38.92-.68,1.46-.88,1.68-.62,3.6-.27,4.91.88l4.72,4.2c5.01,4.4,12.87,4.36,17.84-.08l4.52-4.09c1.81-1.55,4.6-1.56,6.42-.03l4.72,4.2c5.01,4.4,12.87,4.36,17.84-.08l4.51-4.09c1.79-1.6,4.62-1.61,6.42-.03l4.72,4.2c5.01,4.4,12.87,4.36,17.84-.08l4.51-4.09c1.79-1.6,4.62-1.62,6.42-.03l4.72,4.2c5.01,4.4,12.87,4.36,17.84-.08l4.52-4.09c1.79-1.6,4.62-1.61,6.42-.03l4.72,4.2c5.01,4.4,12.87,4.36,17.84-.08l4.52-4.09c1.79-1.6,4.62-1.62,6.42-.03l4.72,4.2c2.4,2.13,5.61,3.31,8.94,3.28,3.32,0,6.51-1.21,8.89-3.36l4.51-4.09c1.79-1.6,4.62-1.61,6.42-.03l4.72,4.2c4.34,3.82,10.84,4.3,15.72,1.45-2.96,4.93-2.49,11.54,1.4,15.93l4.07,4.53c1.54,1.82,1.54,4.61,0,6.42l-4.22,4.7Z"/>
  </g>
</svg>