<?xml version="1.0" encoding="utf-8"?>
<!-- Generator: Adobe Illustrator 27.8.1, SVG Export Plug-In . SVG Version: 6.00 Build 0)  -->
<svg version="1.1" id="Capa_1" xmlns="http://www.w3.org/2000/svg" xmlns:xlink="http://www.w3.org/1999/xlink" x="0px" y="0px"
	 viewBox="0 0 373 20" style="enable-background:new 0 0 373 20;" xml:space="preserve">
<style type="text/css">
	.st0{fill:#1F1E21;}
	.st1{fill:#232225;}
</style>
<path class="st0" d="M373,0c-2.6,0-4.8,0.5-6.7,1.5l-3.6,1.8c-1.4,0.7-3.7,0.7-5.1,0l-3.8-1.9c-4-2-10.3-2-14.2,0L336,3.4
	c-1.4,0.7-3.7,0.7-5.1,0l-3.8-1.9c-1.9-1-4.5-1.5-7.1-1.5c-2.6,0-5.2,0.5-7.1,1.5l-3.6,1.8c-1.4,0.7-3.7,0.7-5.1,0l-3.8-1.9
	c-4-2-10.3-2-14.2,0l-3.6,1.8c-1.4,0.7-3.7,0.7-5.1,0l-3.8-1.9c-1.9-1-4.5-1.5-7.1-1.5c-2.6,0-5.2,0.5-7.1,1.5l-3.6,1.8
	c-1.4,0.7-3.7,0.7-5.1,0L247,1.5c-4-2-10.3-2-14.2,0l-3.6,1.8c-1.4,0.7-3.7,0.7-5.1,0l-3.8-1.9c-4-2-10.3-2-14.2,0l-3.6,1.8
	c-1.4,0.7-3.7,0.7-5.1,0l-3.7-1.9c-2.9-1.4-7.2-1.9-10.9-1.1c-1.2,0.3-2.4,0.6-3.3,1.1l-2.2,1.2l-1.3,0.7c-1.4,0.7-3.7,0.7-5.1,0
	l-3.8-1.9c-4-2-10.3-2-14.2,0l-3.6,1.8c-1.4,0.7-3.7,0.7-5.1,0l-3.8-1.9c-2-0.9-4.5-1.5-7.2-1.4c-2.7,0-5.2,0.5-7.1,1.5l-3.6,1.8
	c-1.4,0.7-3.7,0.7-5.1,0l-3.8-1.9c-4-2-10.3-2-14.2,0l-3.6,1.8c-1.4,0.7-3.7,0.7-5.1,0l-3.8-1.9c-4-2-10.3-2-14.2,0l-3.6,1.8
	c-1.4,0.7-3.7,0.7-5.1,0L60,1.5c-4-2-10.3-2-14.2,0l-3.6,1.8c-1.4,0.7-3.7,0.7-5.1,0l-3.8-1.9c-4-2-10.3-2-14.2,0l-3.6,1.8
	c-1.4,0.7-3.7,0.7-5.1,0L6.6,1.5C4.8,0.6,2.4,0.1,0,0v3.3c0.7,0.1-0.6,0.2,0,0.5l5.8,1.9c4,2,10.3,2,14.2,0l3.6-1.8
	c1.4-0.7,3.7-0.7,5.1,0l3.8,1.9c4,2,10.3,2,14.2,0l3.6-1.8c1.4-0.7,3.7-0.7,5.1,0l3.8,1.9c4,2,10.3,2,14.2,0L77,3.8
	c1.4-0.7,3.7-0.7,5.1,0l3.8,1.9c4,2,10.3,2,14.2,0l3.6-1.8c1.4-0.7,3.7-0.7,5.1,0l3.8,1.9c4,2,10.3,2,14.2,0l3.6-1.8
	c1.4-0.7,3.7-0.7,5.1,0l3.8,1.9c4,2,10.3,2,14.2,0l3.6-1.8c1.4-0.7,3.7-0.7,5.1,0l3.8,1.9c4,2,10.3,2,14.2,0l3.6-1.8
	c0.3-0.2,0.7-0.3,1.2-0.4c1.3-0.3,2.9-0.1,3.9,0.4l3.8,1.9c4,2,10.3,2,14.2,0l3.6-1.8c1.4-0.7,3.7-0.7,5.1,0l3.8,1.9
	c4,2,10.3,2,14.2,0l3.6-1.8c1.4-0.7,3.7-0.7,5.1,0l3.8,1.9c4,2,10.3,2,14.2,0l3.6-1.8c1.4-0.7,3.7-0.7,5.1,0l3.8,1.9
	c4,2,10.3,2,14.2,0l3.6-1.8c1.4-0.7,3.7-0.7,5.1,0l3.8,1.9c4,2,10.3,2,14.2,0l3.6-1.8c1.4-0.7,3.7-0.7,5.1,0l3.8,1.9
	c1.9,1,4.5,1.5,7.1,1.5c2.6,0,5.2-0.5,7.1-1.5l3.6-1.8c1.4-0.7,3.7-0.7,5.1,0l3.8,1.9c4,2,10.3,2,14.2,0l3.6-1.8
	c0.7-0.3,1.2-0.5,2.2-0.5V0L373,0z"/>
<path class="st1" d="M373,2.4c-2.6,0-4.7,0.6-6.5,1.5l-3.6,1.8c-1.4,0.7-3.7,0.7-5.1,0L354,3.8c-4-2-10.3-2-14.2,0l-3.6,1.8
	c-1.4,0.7-3.7,0.7-5.1,0l-3.8-1.9c-1.9-1-4.5-1.5-7.1-1.5c-2.6,0-5.2,0.5-7.1,1.5l-3.6,1.8c-1.4,0.7-3.7,0.7-5.1,0l-3.8-1.9
	c-4-2-10.3-2-14.2,0l-3.6,1.8c-1.4,0.7-3.7,0.7-5.1,0l-3.8-1.9c-1.9-1-4.5-1.5-7.1-1.5c-2.6,0-5.2,0.5-7.1,1.5L256,5.7
	c-1.4,0.7-3.7,0.7-5.1,0l-3.8-1.9c-4-2-10.3-2-14.2,0l-3.6,1.8c-1.4,0.7-3.7,0.7-5.1,0l-3.8-1.9c-4-2-10.3-2-14.2,0l-3.6,1.8
	c-1.4,0.7-3.7,0.7-5.1,0l-3.7-1.9c-2.9-1.4-7.2-1.9-10.9-1.1c-1.2,0.3-2.4,0.6-3.3,1.1L177.3,5l-1.3,0.7c-1.4,0.7-3.7,0.7-5.1,0
	l-3.8-1.9c-4-2-10.3-2-14.2,0l-3.6,1.8c-1.4,0.7-3.7,0.7-5.1,0l-3.8-1.9c-1.9-1-4.5-1.5-7.1-1.5c-2.7,0-5.2,0.5-7.1,1.5l-3.6,1.8
	c-1.4,0.7-3.7,0.7-5.1,0l-3.8-1.9c-4-2-10.3-2-14.2,0l-3.6,1.8c-1.4,0.7-3.7,0.7-5.1,0l-3.8-1.9c-4-2-10.3-2-14.2,0l-3.6,1.8
	c-1.4,0.7-3.7,0.7-5.1,0l-3.8-1.9c-4-2-10.3-2-14.2,0l-3.6,1.8c-1.4,0.7-3.7,0.7-5.1,0l-3.8-1.9c-4-2-10.3-2-14.2,0l-3.6,1.8
	c-1.4,0.7-3.7,0.7-5.1,0L6.8,3.8C4.9,2.9,2.5,2.4,0,2.4v3.3c0.8,0-0.6,0.2,0,0.5l5.9,1.9c4,2,10.3,2,14.2,0l3.6-1.8
	c1.4-0.7,3.7-0.7,5.1,0l3.8,1.9c4,2,10.3,2,14.2,0l3.6-1.8c1.4-0.7,3.7-0.7,5.1,0l3.8,1.9c4,2,10.3,2,14.2,0l3.6-1.8
	c1.4-0.7,3.7-0.7,5.1,0l3.8,1.9c4,2,10.3,2,14.2,0l3.6-1.8c1.4-0.7,3.7-0.7,5.1,0l3.8,1.9c4,2,10.3,2,14.2,0l3.6-1.8
	c1.4-0.7,3.7-0.7,5.1,0l3.8,1.9c4,2,10.3,2,14.2,0l3.6-1.8c1.4-0.7,3.7-0.7,5.1,0l3.8,1.9c4,2,10.3,2,14.2,0l3.6-1.8
	c0.3-0.2,0.7-0.3,1.2-0.4c1.3-0.3,2.9-0.1,3.9,0.4l3.8,1.9c4,2,10.3,2,14.2,0l3.6-1.8c1.4-0.7,3.7-0.7,5.1,0l3.8,1.9
	c4,2,10.3,2,14.2,0l3.6-1.8c1.4-0.7,3.7-0.7,5.1,0l3.8,1.9c4,2,10.3,2,14.2,0l3.6-1.8c1.4-0.7,3.7-0.7,5.1,0l3.8,1.9
	c4,2,10.3,2,14.2,0l3.6-1.8c1.4-0.7,3.7-0.7,5.1,0l3.8,1.9c4,2,10.3,2,14.2,0l3.6-1.8c1.4-0.7,3.7-0.7,5.1,0l3.8,1.9
	c1.9,1,4.5,1.5,7.1,1.5c2.6,0,5.2-0.5,7.1-1.5l3.6-1.8c1.4-0.7,3.7-0.7,5.1,0l3.8,1.9c4,2,10.3,2,14.2,0l3.6-1.8
	c0.6-0.3,1.1-0.5,2-0.5V2.4L373,2.4z"/>
<path class="st0" d="M373,4.7c-2.5,0-4.5,0.6-6.4,1.5L363,8.1c-1.4,0.7-3.7,0.7-5.1,0l-3.8-1.9c-4-2-10.3-2-14.2,0l-3.6,1.8
	c-1.4,0.7-3.7,0.7-5.1,0l-3.8-1.9c-1.9-1-4.5-1.5-7.1-1.5c-2.6,0-5.2,0.5-7.1,1.5l-3.6,1.8c-1.4,0.7-3.7,0.7-5.1,0l-3.8-1.9
	c-4-2-10.3-2-14.2,0l-3.6,1.8c-1.4,0.7-3.7,0.7-5.1,0L274,6.2c-1.9-1-4.5-1.5-7.1-1.5c-2.6,0-5.2,0.5-7.1,1.5l-3.6,1.8
	c-1.4,0.7-3.7,0.7-5.1,0l-3.8-1.9c-4-2-10.3-2-14.2,0l-3.6,1.8c-1.4,0.7-3.7,0.7-5.1,0l-3.8-1.9c-4-2-10.3-2-14.2,0l-3.6,1.8
	c-1.4,0.7-3.7,0.7-5.1,0l-3.7-1.9c-2.9-1.4-7.2-1.9-10.9-1.1c-1.2,0.3-2.4,0.6-3.3,1.1l-2.2,1.2L176.1,8c-1.4,0.7-3.7,0.7-5.1,0
	l-3.8-1.9c-4-2-10.3-2-14.2,0L149.4,8c-1.4,0.7-3.7,0.7-5.1,0l-3.8-1.9c-1.9-1-4.5-1.5-7.1-1.5c-2.7,0-5.2,0.5-7.1,1.5L122.6,8
	c-1.4,0.7-3.7,0.7-5.1,0l-3.8-1.9c-4-2-10.3-2-14.2,0L95.9,8c-1.4,0.7-3.7,0.7-5.1,0L87,6.1c-4-2-10.3-2-14.2,0L69.2,8
	c-1.4,0.7-3.7,0.7-5.1,0l-3.8-1.9c-4-2-10.3-2-14.2,0L42.5,8c-1.4,0.7-3.7,0.7-5.1,0l-3.8-1.9c-4-2-10.3-2-14.2,0L15.8,8
	c-1.4,0.7-3.7,0.7-5.1,0L6.9,6.1C5.1,5.2,2.5,4.7,0,4.7V8c0.8,0-0.6,0.2,0,0.5l6.1,1.9c4,2,10.3,2,14.2,0L24,8.5
	c1.4-0.7,3.7-0.7,5.1,0l3.8,1.9c4,2,10.3,2,14.2,0l3.6-1.8c1.4-0.7,3.7-0.7,5.1,0l3.8,1.9c4,2,10.3,2,14.2,0l3.6-1.8
	c1.4-0.7,3.7-0.7,5.1,0l3.8,1.9c4,2,10.3,2,14.2,0l3.6-1.8c1.4-0.7,3.7-0.7,5.1,0l3.8,1.9c4,2,10.3,2,14.2,0l3.6-1.8
	c1.4-0.7,3.7-0.7,5.1,0l3.8,1.9c4,2,10.3,2,14.2,0l3.6-1.8c1.4-0.7,3.7-0.7,5.1,0l3.8,1.9c4,2,10.3,2,14.2,0l3.6-1.8
	c0.3-0.2,0.7-0.3,1.2-0.4c1.3-0.3,2.9-0.1,3.9,0.4l3.8,1.9c4,2,10.3,2,14.2,0l3.6-1.8c1.4-0.7,3.7-0.7,5.1,0l3.8,1.9
	c4,2,10.3,2,14.2,0l3.6-1.8c1.4-0.7,3.7-0.7,5.1,0l3.8,1.9c4,2,10.3,2,14.2,0l3.6-1.8c1.4-0.7,3.7-0.7,5.1,0l3.8,1.9
	c4,2,10.3,2,14.2,0l3.6-1.8c1.4-0.7,3.7-0.7,5.1,0l3.8,1.9c4,2,10.3,2,14.2,0l3.6-1.8c1.4-0.7,3.7-0.7,5.1,0l3.8,1.9
	c1.9,1,4.5,1.5,7.1,1.5c2.6,0,5.2-0.5,7.1-1.5l3.6-1.8c1.4-0.7,3.7-0.7,5.1,0l3.8,1.9c4,2,10.3,2,14.2,0l3.6-1.8
	c0.6-0.3,1-0.5,1.8-0.5V4.7L373,4.7z"/>
<path class="st1" d="M373,7.1c-2.5,0.1-4.4,0.6-6.2,1.5l-3.6,1.8c-1.4,0.7-3.7,0.7-5.1,0l-3.8-1.9c-4-2-10.3-2-14.2,0l-3.6,1.8
	c-1.4,0.7-3.7,0.7-5.1,0l-3.8-1.9c-1.9-1-4.5-1.5-7.1-1.5c-2.6,0-5.2,0.5-7.1,1.5l-3.6,1.8c-1.4,0.7-3.7,0.7-5.1,0l-3.8-1.9
	c-4-2-10.3-2-14.2,0l-3.6,1.8c-1.4,0.7-3.7,0.7-5.1,0l-3.8-1.9c-1.9-1-4.5-1.5-7.1-1.5c-2.6,0-5.2,0.5-7.1,1.5l-3.6,1.8
	c-1.4,0.7-3.7,0.7-5.1,0l-3.8-1.9c-4-2-10.3-2-14.2,0l-3.6,1.8c-1.4,0.7-3.7,0.7-5.1,0l-3.8-1.9c-4-2-10.3-2-14.2,0l-3.6,1.8
	c-1.4,0.7-3.7,0.7-5.1,0l-3.7-1.9c-2.9-1.4-7.2-1.9-10.9-1.1c-1.2,0.3-2.4,0.6-3.3,1.1l-2.2,1.2l-1.3,0.7c-1.4,0.7-3.7,0.7-5.1,0
	l-3.8-1.9c-4-2-10.3-2-14.2,0l-3.6,1.8c-1.4,0.7-3.7,0.7-5.1,0l-3.8-1.9c-1.9-1-4.5-1.5-7.1-1.5c-2.7,0-5.2,0.5-7.1,1.5l-3.6,1.8
	c-1.4,0.7-3.7,0.7-5.1,0l-3.8-1.9c-4-2-10.3-2-14.2,0l-3.6,1.8c-1.4,0.7-3.7,0.7-5.1,0l-3.8-1.9c-4-2-10.3-2-14.2,0l-3.6,1.8
	c-1.4,0.7-3.7,0.7-5.1,0l-3.8-1.9c-4-2-10.3-2-14.2,0l-3.6,1.8c-1.4,0.7-3.7,0.7-5.1,0l-3.8-1.9c-4-2-10.3-2-14.2,0l-3.6,1.8
	c-1.4,0.7-3.7,0.7-5.1,0L7.1,8.5C5.2,7.5,2.6,7,0,7v3.3c0.9,0-0.6,0.2,0,0.5l6.3,1.9c4,2,10.3,2,14.2,0l3.6-1.8
	c1.4-0.7,3.7-0.7,5.1,0l3.8,1.9c4,2,10.3,2,14.2,0l3.6-1.8c1.4-0.7,3.7-0.7,5.1,0l3.8,1.9c4,2,10.3,2,14.2,0l3.6-1.8
	c1.4-0.7,3.7-0.7,5.1,0l3.8,1.9c4,2,10.3,2,14.2,0l3.6-1.8c1.4-0.7,3.7-0.7,5.1,0l3.8,1.9c4,2,10.3,2,14.2,0l3.6-1.8
	c1.4-0.7,3.7-0.7,5.1,0l3.8,1.9c4,2,10.3,2,14.2,0l3.6-1.8c1.4-0.7,3.7-0.7,5.1,0l3.8,1.9c4,2,10.3,2,14.2,0l3.6-1.8
	c0.3-0.2,0.7-0.3,1.2-0.4c1.3-0.3,2.9-0.1,3.9,0.4l3.8,1.9c4,2,10.3,2,14.2,0l3.6-1.8c1.4-0.7,3.7-0.7,5.1,0l3.8,1.9
	c4,2,10.3,2,14.2,0l3.6-1.8c1.4-0.7,3.7-0.7,5.1,0l3.8,1.9c4,2,10.3,2,14.2,0l3.6-1.8c1.4-0.7,3.7-0.7,5.1,0l3.8,1.9
	c4,2,10.3,2,14.2,0l3.6-1.8c1.4-0.7,3.7-0.7,5.1,0l3.8,1.9c4,2,10.3,2,14.2,0l3.6-1.8c1.4-0.7,3.7-0.7,5.1,0l3.8,1.9
	c1.9,1,4.5,1.5,7.1,1.5c2.6,0,5.2-0.5,7.1-1.5l3.6-1.8c1.4-0.7,3.7-0.7,5.1,0l3.8,1.9c4,2,10.3,2,14.2,0l3.6-1.8
	c0.6-0.3,0.9-0.5,1.7-0.5V7.1L373,7.1z"/>
<path class="st0" d="M373,9.4c-2.5,0.1-4.3,0.6-6.1,1.5l-3.6,1.8c-1.4,0.7-3.7,0.7-5.1,0l-3.8-1.9c-4-2-10.3-2-14.2,0l-3.6,1.8
	c-1.4,0.7-3.7,0.7-5.1,0l-3.8-1.9c-1.9-1-4.5-1.5-7.1-1.5c-2.6,0-5.2,0.5-7.1,1.5l-3.6,1.8c-1.4,0.7-3.7,0.7-5.1,0l-3.8-1.9
	c-4-2-10.3-2-14.2,0l-3.6,1.8c-1.4,0.7-3.7,0.7-5.1,0l-3.8-1.9c-1.9-1-4.5-1.5-7.1-1.5c-2.6,0-5.2,0.5-7.1,1.5l-3.6,1.8
	c-1.4,0.7-3.7,0.7-5.1,0l-3.8-1.9c-4-2-10.3-2-14.2,0l-3.6,1.8c-1.4,0.7-3.7,0.7-5.1,0l-3.8-1.9c-4-2-10.3-2-14.2,0l-3.6,1.8
	c-1.4,0.7-3.7,0.7-5.1,0l-3.7-1.9c-2.9-1.4-7.2-1.9-10.9-1.1c-1.2,0.3-2.4,0.6-3.3,1.1l-2.2,1.2l-1.3,0.7c-1.4,0.7-3.7,0.7-5.1,0
	l-3.8-1.9c-4-2-10.3-2-14.2,0l-3.6,1.8c-1.4,0.7-3.7,0.7-5.1,0l-3.8-1.9c-1.9-1-4.5-1.5-7.1-1.5c-2.7,0-5.2,0.5-7.1,1.5l-3.6,1.8
	c-1.4,0.7-3.7,0.7-5.1,0l-3.8-1.9c-4-2-10.3-2-14.2,0l-3.6,1.8c-1.4,0.7-3.7,0.7-5.1,0l-3.8-1.9c-4-2-10.3-2-14.2,0l-3.6,1.8
	c-1.4,0.7-3.7,0.7-5.1,0l-3.8-1.9c-4-2-10.3-2-14.2,0l-3.6,1.8c-1.4,0.7-3.7,0.7-5.1,0l-3.8-1.9c-4-2-10.3-2-14.2,0l-3.6,1.8
	c-1.4,0.7-3.7,0.7-5.1,0l-3.8-1.9C5.3,9.9,2.6,9.3,0,9.3v3.3c0.9,0-0.7,0.2,0,0.5L6.5,15c4,2,10.3,2,14.2,0l3.6-1.8
	c1.4-0.7,3.7-0.7,5.1,0l3.8,1.9c4,2,10.3,2,14.2,0l3.6-1.8c1.4-0.7,3.7-0.7,5.1,0l3.8,1.9c4,2,10.3,2,14.2,0l3.6-1.8
	c1.4-0.7,3.7-0.7,5.1,0l3.8,1.9c4,2,10.3,2,14.2,0l3.6-1.8c1.4-0.7,3.7-0.7,5.1,0l3.8,1.9c4,2,10.3,2,14.2,0l3.6-1.8
	c1.4-0.7,3.7-0.7,5.1,0L140,15c4,2,10.3,2,14.2,0l3.6-1.8c1.4-0.7,3.7-0.7,5.1,0l3.8,1.9c4,2,10.3,2,14.2,0l3.6-1.8
	c0.3-0.2,0.7-0.3,1.2-0.4c1.3-0.3,2.9-0.1,3.9,0.4l3.8,1.9c4,2,10.3,2,14.2,0l3.6-1.8c1.4-0.7,3.7-0.7,5.1,0l3.8,1.9
	c4,2,10.3,2,14.2,0l3.6-1.8c1.4-0.7,3.7-0.7,5.1,0l3.8,1.9c4,2,10.3,2,14.2,0l3.6-1.8c1.4-0.7,3.7-0.7,5.1,0l3.8,1.9
	c4,2,10.3,2,14.2,0l3.6-1.8c1.4-0.7,3.7-0.7,5.1,0l3.8,1.9c4,2,10.3,2,14.2,0l3.6-1.8c1.4-0.7,3.7-0.7,5.1,0l3.8,1.9
	c1.9,1,4.5,1.5,7.1,1.5c2.6,0,5.2-0.5,7.1-1.5l3.6-1.8c1.4-0.7,3.7-0.7,5.1,0l3.8,1.9c4,2,10.3,2,14.2,0l3.6-1.8
	c0.5-0.3,0.7-0.5,1.5-0.5V9.4L373,9.4z"/>
<path class="st1" d="M373,11.7c-2.4,0.1-4.2,0.6-5.9,1.5l-3.6,1.8c-1.4,0.7-3.7,0.7-5.1,0l-3.8-1.9c-4-2-10.3-2-14.2,0l-3.6,1.8
	c-1.4,0.7-3.7,0.7-5.1,0l-3.8-1.9c-1.9-1-4.5-1.5-7.1-1.5c-2.6,0-5.2,0.5-7.1,1.5l-3.6,1.8c-1.4,0.7-3.7,0.7-5.1,0l-3.8-1.9
	c-4-2-10.3-2-14.2,0l-3.6,1.8c-1.4,0.7-3.7,0.7-5.1,0l-3.8-1.9c-1.9-1-4.5-1.5-7.1-1.5c-2.6,0-5.2,0.5-7.1,1.5l-3.6,1.8
	c-1.4,0.7-3.7,0.7-5.1,0l-3.8-1.9c-4-2-10.3-2-14.2,0l-3.6,1.8c-1.4,0.7-3.7,0.7-5.1,0l-3.8-1.9c-4-2-10.3-2-14.2,0l-3.6,1.8
	c-1.4,0.7-3.7,0.7-5.1,0l-3.7-1.9c-2.9-1.4-7.2-1.9-10.9-1.1c-1.2,0.3-2.4,0.6-3.3,1.1l-2.2,1.2l-1.3,0.7c-1.4,0.7-3.7,0.7-5.1,0
	l-3.8-1.9c-4-2-10.3-2-14.2,0l-3.6,1.8c-1.4,0.7-3.7,0.7-5.1,0l-3.8-1.9c-1.9-1-4.5-1.5-7.1-1.5c-2.7,0-5.2,0.5-7.1,1.5l-3.6,1.8
	c-1.4,0.7-3.7,0.7-5.1,0l-3.8-1.9c-4-2-10.3-2-14.2,0L96.4,15c-1.4,0.7-3.7,0.7-5.1,0l-3.8-1.9c-4-2-10.3-2-14.2,0L69.7,15
	c-1.4,0.7-3.7,0.7-5.1,0l-3.8-1.9c-4-2-10.3-2-14.2,0L43,15c-1.4,0.7-3.7,0.7-5.1,0l-3.8-1.9c-4-2-10.3-2-14.2,0L16.3,15
	c-1.4,0.7-3.7,0.7-5.1,0l-3.8-1.9c-1.9-1-4.7-1.5-7.4-1.5v3.3l0,0c1,0-0.7,0.2,0,0.5l6.6,1.9c4,2,10.3,2,14.2,0l3.6-1.8
	c1.4-0.7,3.7-0.7,5.1,0l3.8,1.9c4,2,10.3,2,14.2,0l3.6-1.8c1.4-0.7,3.7-0.7,5.1,0l3.8,1.9c4,2,10.3,2,14.2,0l3.6-1.8
	c1.4-0.7,3.7-0.7,5.1,0l3.8,1.9c4,2,10.3,2,14.2,0l3.6-1.8c1.4-0.7,3.7-0.7,5.1,0l3.8,1.9c4,2,10.3,2,14.2,0l3.6-1.8
	c1.4-0.7,3.7-0.7,5.1,0l3.8,1.9c4,2,10.3,2,14.2,0l3.6-1.8c1.4-0.7,3.7-0.7,5.1,0l3.8,1.9c4,2,10.3,2,14.2,0l3.6-1.8
	c0.3-0.2,0.7-0.3,1.2-0.4c1.3-0.3,2.9-0.1,3.9,0.4l3.8,1.9c4,2,10.3,2,14.2,0l3.6-1.8c1.4-0.7,3.7-0.7,5.1,0l3.8,1.9
	c4,2,10.3,2,14.2,0l3.6-1.8c1.4-0.7,3.7-0.7,5.1,0l3.8,1.9c4,2,10.3,2,14.2,0l3.6-1.8c1.4-0.7,3.7-0.7,5.1,0l3.8,1.9
	c4,2,10.3,2,14.2,0l3.6-1.8c1.4-0.7,3.7-0.7,5.1,0l3.8,1.9c4,2,10.3,2,14.2,0l3.6-1.8c1.4-0.7,3.7-0.7,5.1,0l3.8,1.9
	c1.9,1,4.5,2.6,7.1,2.6c2.6,0,5.2-1.7,7.1-2.7l3.6-1.8c1.4-0.7,3.7-0.7,5.1,0l3.8,1.9c4,2,10.3,2,14.2,0l3.6-1.8
	c0.5-0.3,0.6-0.4,1.3-0.5V11.7L373,11.7z"/>
<path class="st0" d="M6.5,20H21l3.5-2.1c1.4-0.7,3.7-0.7,5.1,0l3.6,2.1h14.5l3.5-2.1c1.4-0.7,3.7-0.7,5.1,0l3.6,2.1h14.5l3.5-2.1
	c1.4-0.7,3.7-0.7,5.1,0l3.6,2.1h14.5l3.5-2.1c1.4-0.7,3.7-0.7,5.1,0l3.6,2.1h14.5l3.5-2.1c1.4-0.7,3.7-0.7,5.1,0l3.6,2.1h14.5
	l3.5-2.1c1.4-0.7,3.7-0.7,5.1,0l3.6,2.1h14.5l3.5-2.1c0.3-0.2,0.7-0.3,1.2-0.4c1.3-0.3,2.9-0.1,3.9,0.4l3.6,2.1H208l3.5-2.1
	c1.4-0.7,3.7-0.7,5.1,0l3.6,2.1h14.5l3.5-2c1.4-0.7,3.7-0.7,5.1,0l3.6,2.1h14.5l3.5-2c1.4-0.7,3.7-0.7,5.1,0l3.6,2h14.5l3.5-2
	c1.4-0.7,3.7-0.7,5.1,0l3.6,2h14.5l3.5-2c1.4-0.7,3.7-0.7,5.1,0l3.6,2h14.5l3.5-2c1.4-0.7,3.7-0.7,5.1,0l3.6,2h14.5l3.5-2
	c0.5-0.2,0.6-0.4,1.3-0.5v-3.3c-2.4,0.1-4.1,0.6-5.8,1.5l-3.6,1.8c-1.4,0.7-3.7,0.7-5.1,0l-3.8-1.9c-4-2-10.3-2-14.2,0l-3.6,1.8
	c-1.4,0.7-3.7,0.7-5.1,0l-3.8-1.9c-1.9-1-4.5-1.5-7.1-1.5c-2.6,0-5.2,0.5-7.1,1.5l-3.6,1.8c-1.4,0.7-3.7,0.7-5.1,0l-3.8-1.9
	c-4-2-10.3-2-14.2,0l-3.6,1.8c-1.4,0.7-3.7,0.7-5.1,0l-3.8-1.9c-1.9-1-4.5-1.5-7.1-1.5c-2.6,0-5.2,0.5-7.1,1.5l-3.6,1.8
	c-1.4,0.7-3.7,0.7-5.1,0l-3.8-1.9c-4-2-10.3-2-14.2,0l-3.6,1.8c-1.4,0.7-3.7,0.7-5.1,0l-3.8-1.9c-4-2-10.3-2-14.2,0l-3.6,1.8
	c-1.4,0.7-3.7,0.7-5.1,0l-3.7-1.9c-2.9-1.4-7.2-1.9-10.9-1.1c-1.2,0.3-2.4,0.6-3.3,1.1l-2.2,1.2l-1.3,0.7c-1.4,0.7-3.7,0.7-5.1,0
	l-3.8-1.9c-4-2-10.3-2-14.2,0l-3.6,1.8c-1.4,0.7-3.7,0.7-5.1,0l-3.8-1.9c-1.9-1-4.5-1.5-7.1-1.5c-2.7,0-5.2,0.5-7.1,1.5l-3.6,1.8
	c-1.4,0.7-3.7,0.7-5.1,0l-3.8-1.9c-4-2-10.3-2-14.2,0l-3.6,1.8c-1.4,0.7-3.7,0.7-5.1,0l-3.8-1.9c-4-2-10.3-2-14.2,0l-3.6,1.8
	c-1.4,0.7-3.7,0.7-5.1,0l-3.8-1.9c-4-2-10.3-2-14.2,0l-3.6,1.8c-1.4,0.7-3.7,0.7-5.1,0l-3.8-1.9c-4-2-10.3-2-14.2,0l-3.6,1.8
	c-1.4,0.7-3.7,0.7-5.1,0l-3.8-1.9c-1.9-1-4.8-1.5-7.5-1.5c0,0,0,0,0,0v3.3c0,0,0,0,0,0l0,0c1,0-0.7,0.2,0,0.5L6.5,20L6.5,20z"/>
<g>
	<path class="st1" d="M251.6,20l-3.6-2.1c-4-2-10.3-2-14.2,0l-3.4,2.1C230.4,20,251.6,20,251.6,20z"/>
	<path class="st1" d="M373,20v-3.6c-2.3,0.1-4,0.6-5.6,1.5L364,20H373L373,20z"/>
	<path class="st1" d="M278.3,20l-3.5-2.1c-1.9-1-4.5-1.5-7.1-1.5c-2.6,0-5.2,0.5-7.1,1.5l-3.4,2.1C257.1,20,278.3,20,278.3,20z"/>
	<path class="st1" d="M224.9,20l-3.6-2.1c-4-2-10.3-2-14.2,0l-3.4,2.1H224.9L224.9,20z"/>
	<path class="st1" d="M305,20l-3.5-2.1c-4-2-10.3-2-14.2,0l-3.4,2.1C283.8,20,305,20,305,20z"/>
	<path class="st1" d="M358.4,20l-3.5-2.1c-4-2-10.3-2-14.2,0l-3.4,2.1C337.2,20,358.4,20,358.4,20z"/>
	<path class="st1" d="M331.7,20l-3.5-2.1c-1.9-1-4.5-1.5-7.1-1.5c-2.6,0-5.2,0.5-7.1,1.5l-3.4,2.1C310.5,20,331.7,20,331.7,20z"/>
	<path class="st1" d="M171.5,20l-3.6-2.1c-4-2-10.3-2-14.2,0l-3.4,2.1C150.2,20,171.5,20,171.5,20z"/>
	<path class="st1" d="M64.6,20L61,17.9c-4-2-10.3-2-14.2,0L43.4,20C43.4,20,64.6,20,64.6,20z"/>
	<path class="st1" d="M198.1,20l-3.5-2.1c-2.9-1.5-7.2-1.9-10.9-1.1c-1.2,0.3-2.4,0.6-3.3,1.1l-2.2,2.1H177H198.1L198.1,20z"/>
	<path class="st1" d="M0,20L0,20h11.2l-3.6-2.1c-1.9-1-4.9-1.5-7.6-1.5c-0.1,0,0.1,0,0,0V20C0.1,20-0.1,20,0,20L0,20L0,20z"/>
	<path class="st1" d="M37.9,20l-3.6-2.1c-4-2-10.3-2-14.2,0L16.7,20C16.7,20,37.9,20,37.9,20z"/>
	<path class="st1" d="M134.1,20C134.1,20,134.1,20,134.1,20h10.7l-3.6-2.1c-1.9-1-4.5-1.5-7.1-1.5c-2.7,0-5.2,0.5-7.1,1.5l-3.4,2.1
		H134.1L134.1,20z"/>
	<path class="st1" d="M107.4,20C107.4,20,107.4,20,107.4,20H118l-3.6-2.1c-4-2-10.3-2-14.2,0L96.8,20H107.4L107.4,20z"/>
	<path class="st1" d="M80.6,20C80.6,20,80.7,20,80.6,20h10.7l-3.6-2.1c-4-2-10.3-2-14.2,0L70.1,20H80.6L80.6,20z"/>
</g>
</svg>
