<?xml version="1.0" encoding="utf-8"?>
   
<svg xmlns="http://www.w3.org/2000/svg" xmlns:xlink="http://www.w3.org/1999/xlink" width="100" height="56" viewBox="0 0 100 56" fill="none"><path d="M48.3249 50.2987C48.3079 50.2888 48.1455 50.4089 48.1267 50.4188C47.9795 50.5084 47.8306 50.598 47.6834 50.6876C47.2265 50.974 46.7463 51.2216 46.2479 51.4278C45.7435 51.6303 45.2231 51.7906 44.6922 51.9073C43.5116 52.1826 42.297 52.2834 41.0872 52.2066C39.8642 52.0851 38.6781 51.7195 37.5992 51.1314C36.5204 50.5434 35.5708 49.7449 34.8068 48.7833C33.8956 47.7235 33.0821 46.5838 32.3762 45.3779C30.7909 42.5998 29.4531 39.7007 28.0697 36.8196C27.1043 34.8023 27.1294 34.8677 29.0862 33.7995C34.8382 30.6576 38.1004 25.8631 38.3561 19.2522C38.5885 13.2309 33.6009 7.48295 26.9481 6.01504C23.5271 5.21074 19.9664 5.20491 16.5427 5.99802C13.119 6.79113 9.92436 8.36183 7.20696 10.5881C3.29784 13.6225 0.667233 17.5979 0.202481 22.689C-0.0496892 24.6173 0.405902 26.5715 1.48496 28.1902C2.56403 29.8089 4.19353 30.9824 6.07199 31.4937C12.4816 33.286 19.5139 28.1313 19.6745 21.4567C19.7217 20.3204 19.5069 19.1884 19.0465 18.1481C18.8107 17.6417 18.5064 17.1701 18.1421 16.7465C17.8751 16.4459 17.5821 16.1694 17.2664 15.9203C16.9563 15.6447 16.6123 15.4098 16.2427 15.2213C16.2041 15.2033 16.1664 15.1845 16.1288 15.1657C16.1288 15.1657 15.97 15.5125 15.9215 15.6138L15.4594 16.5825L14.7919 17.9832L14.5021 18.5917C14.6447 18.6739 14.7828 18.7636 14.9157 18.8606C15.0478 18.9642 15.17 19.0796 15.2809 19.2056C15.4772 19.4219 15.6372 19.6686 15.7546 19.936C15.9745 20.4942 16.0792 21.091 16.0624 21.6906C16.0624 21.713 16.0624 21.7354 16.0624 21.7578C16.0399 22.5718 15.8503 23.3725 15.5052 24.1103C14.8495 25.547 13.7323 26.724 12.3309 27.4547C10.1049 28.5955 7.77668 28.799 5.67453 27.2154C3.4369 25.5298 3.48804 23.1218 3.98779 20.6645C4.05861 20.3732 4.15499 20.0886 4.27579 19.8141C5.77163 16.1688 8.5513 13.1964 12.0904 11.4574C16.2944 9.13066 21.2206 8.46755 25.8912 9.59967C26.6655 9.78428 27.2649 9.97068 26.6844 11.0765C23.4625 17.2215 20.7449 23.6075 17.8092 29.8896C16.6519 32.6609 15.0627 35.2318 13.1007 37.5069C10.1399 40.6668 6.58699 42.4241 2.1225 41.6239C1.89713 41.5734 1.6751 41.509 1.45767 41.4312L0.000610352 44.7631C0.000610352 44.7631 0.510222 44.9898 0.634037 45.0221C1.72971 45.3017 2.85602 45.4438 3.98689 45.4451C5.10257 45.4225 6.21108 45.2611 7.28681 44.9647C9.004 44.5283 10.6398 43.819 12.1317 42.8642C13.6493 41.877 15.0156 40.6753 16.188 39.2965C18.7064 36.3715 20.1536 32.8514 21.7749 29.4281C24.3768 23.9265 26.9508 18.4053 29.5465 12.9038C30.2517 11.4072 30.3216 11.4072 31.6145 12.505C33.1536 13.7326 34.1965 15.4745 34.5511 17.4097C35.6116 23.4623 30.8609 30.3878 24.7069 31.7482C24.3902 31.8181 23.7433 32.035 23.7433 32.035C23.3885 32.6653 23.099 33.3301 22.8793 34.0191C22.9266 34.3241 23.0252 34.6189 23.1709 34.891C25.3753 39.6434 27.6435 44.3607 30.1108 48.9903C30.9389 50.6207 32.1059 52.0557 33.5339 53.1993C34.9619 54.343 36.6178 55.1689 38.3911 55.6219C38.9163 55.7529 39.4495 55.8499 39.9872 55.9122C42.7341 56.1936 45.5029 55.6564 47.9445 54.3681C49.1591 53.7233 50.2978 52.9451 51.3396 52.048L48.3249 50.2933" fill="#FFB000"></path><path d="M94.7113 34.2046C93.602 34.3205 92.5829 34.8677 91.8744 35.728C91.6921 36.012 91.451 36.2536 91.1672 36.4364C90.8834 36.6193 90.5637 36.7391 90.2295 36.7878C89.8954 36.8364 89.5546 36.8129 89.2304 36.7186C88.9062 36.6244 88.606 36.4617 88.3501 36.2415C86.0174 34.77 84.0938 35.0308 82.1729 37.0284C81.9775 37.2863 81.7316 37.502 81.4503 37.6623C81.169 37.8225 80.858 37.9241 80.5362 37.9608C80.2144 37.9975 79.8885 37.9686 79.5783 37.8758C79.268 37.783 78.9798 37.6282 78.7312 37.4209C76.3931 35.9709 74.5242 36.2254 72.5486 38.2337C72.3635 38.483 72.1306 38.693 71.8634 38.8514C71.5962 39.0099 71.3002 39.1137 70.9925 39.1567C70.6847 39.1997 70.3715 39.1812 70.0711 39.1021C69.7706 39.023 69.4889 38.885 69.2424 38.6961C66.6638 37.1377 64.9627 37.3779 62.8318 39.5242C62.6468 39.7592 62.4167 39.9552 62.1552 40.1007C61.8936 40.2461 61.6056 40.3382 61.3081 40.3716C61.0106 40.4049 60.7094 40.3789 60.422 40.2949C60.1347 40.211 59.8669 40.0708 59.6342 39.8826C57.122 38.3188 55.3554 38.5527 53.2327 40.7143C52.8608 41.1893 52.3153 41.4975 51.7161 41.5711C51.1168 41.6447 50.5128 41.4777 50.0368 41.1068C47.4475 39.5573 45.7509 39.7742 43.6182 41.9133C43.4393 42.1546 43.2128 42.3568 42.9526 42.5072C42.6924 42.6576 42.4041 42.7531 42.1055 42.7878C41.8069 42.8224 41.5043 42.7956 41.2165 42.7088C40.9287 42.6221 40.6618 42.4773 40.4322 42.2834C39.5176 41.5619 38.357 41.2259 37.1978 41.3469C37.0336 41.3494 36.8717 41.3854 36.7219 41.4526C36.5722 41.5197 36.4377 41.6167 36.3267 41.7376C36.2158 41.8585 36.1307 42.0007 36.0767 42.1556C36.0227 42.3105 36.0009 42.4747 36.0126 42.6383C36.0029 42.7902 36.0265 42.9424 36.0817 43.0842C36.1369 43.2261 36.2224 43.3542 36.3322 43.4597C36.4421 43.5652 36.5736 43.6456 36.7176 43.6952C36.8617 43.7448 37.0148 43.7624 37.1664 43.7469C37.8155 43.7587 38.4491 43.9467 38.9994 44.2908C41.7807 45.8143 43.2234 45.6351 45.5364 43.383C45.8926 42.9593 46.3931 42.6823 46.9416 42.6052C47.49 42.5281 48.0477 42.6564 48.5071 42.9654C51.4625 44.6134 52.776 44.4692 55.1527 42.1795C55.5275 41.7398 56.0563 41.4597 56.6311 41.3966C57.2058 41.3335 57.7829 41.492 58.2444 41.8398C60.9423 43.4359 62.4613 43.2271 64.7617 40.9867C65.1376 40.5458 65.6678 40.2648 66.244 40.201C66.8202 40.1373 67.3991 40.2955 67.8625 40.6435C70.5352 42.227 72.1341 42.0522 74.2703 39.9077C74.6368 39.4298 75.1757 39.1137 75.7721 39.0266C76.3685 38.9396 76.9753 39.0885 77.4635 39.4417C80.1874 41.027 81.648 40.8263 84.0202 38.6352C84.3762 38.2107 84.8814 37.9385 85.432 37.8745C85.9827 37.8105 86.537 37.9595 86.981 38.291C87.8044 38.9317 88.8173 39.2813 89.861 39.2849C90.8367 39.3314 91.7952 39.0164 92.5526 38.4004C93.4714 37.6476 94.2304 36.7255 95.4668 36.3849C95.5991 36.3377 95.7199 36.2627 95.8209 36.1651C95.9219 36.0675 96.0009 35.9494 96.0525 35.8188C96.1042 35.6883 96.1273 35.5482 96.1204 35.4079C96.1134 35.2677 96.0766 35.1306 96.0123 35.0057C95.9263 34.7393 95.7471 34.5127 95.5076 34.3674C95.268 34.2221 94.9841 34.1678 94.7077 34.2144" fill="#FFB000"></path><path d="M95.2191 25.329C94.9169 26.2406 94.3129 27.0223 93.5064 27.5452C92.9905 27.8857 92.3714 28.1904 91.8447 27.7584C91.2795 27.2942 91.8125 26.7431 92.0134 26.2744C93.9747 21.6879 95.9315 17.0995 97.9466 12.5372C97.9843 12.4476 98.0166 12.3732 98.0462 12.297L98.4688 11.4636H94.6404L94.2457 12.3669L94.2367 12.3777L94.2161 12.4019L94.1712 12.3589L94.155 12.3427L94.1335 12.3221L94.1075 12.2979L94.0761 12.2702L94.0402 12.2397L93.9998 12.2056L93.955 12.1689L93.9047 12.1304L93.85 12.09L93.7917 12.0488L93.7289 12.0058L93.6616 11.9628L93.5898 11.9189L93.5145 11.8758L93.4346 11.8328L93.3512 11.7907L93.2614 11.7495L93.1717 11.7101L93.0766 11.6724L92.977 11.6375L92.8738 11.6052L92.768 11.5756L92.6576 11.5496L92.5437 11.5272C92.5051 11.5201 92.4656 11.5147 92.427 11.5093C92.3885 11.5039 92.3472 11.4995 92.3068 11.4959C92.2664 11.4923 92.2252 11.4896 92.1839 11.4869C92.1426 11.4842 92.0996 11.4869 92.0574 11.4869C92.0152 11.4869 91.9677 11.4869 91.9282 11.4869C91.8887 11.4869 91.8385 11.4914 91.7954 11.495C91.7523 11.4986 91.7057 11.5039 91.6599 11.5093C91.6142 11.5147 91.5702 11.5228 91.5218 11.5308C91.4733 11.5389 91.4275 11.5487 91.38 11.5586C91.3324 11.5685 91.284 11.581 91.2355 11.5944C91.1871 11.6079 91.1378 11.6222 91.0893 11.6384C91.0086 11.6643 90.8686 11.6993 90.8686 11.6993C90.375 11.85 89.901 12.0585 89.4564 12.3203C87.443 13.5743 85.9014 15.4582 85.0718 17.6785C83.656 20.815 82.3425 24.0009 80.9859 27.1661C80.7434 27.8772 80.3847 28.5434 79.9245 29.1376C79.5369 29.5696 79.0524 29.9065 78.4773 29.5857C77.9488 29.2927 78.2467 28.7792 78.3616 28.3723C78.503 27.8952 78.6726 27.4269 78.8694 26.9698C80.2062 23.7437 81.5879 20.5354 82.8799 17.2913C83.8668 14.8161 82.687 13.2801 80.0151 13.4378L78.4109 13.5275C78.6684 12.7747 79.2866 11.1975 79.3153 11.1204H76.0809C76.0737 11.1374 72.6607 18.8677 71.7348 20.9315C70.9444 22.6925 70.1198 24.4373 69.2289 26.1498C68.592 27.4861 67.7772 28.7302 66.8065 29.8483C65.8251 30.9723 64.4832 31.7209 63.0104 31.9659C62.5006 32.0699 61.9715 32.0242 61.487 31.8345C61.0026 31.6448 60.5835 31.3191 60.2802 30.8968C60.0877 30.4888 60.0186 30.0336 60.0812 29.587C60.1438 29.1403 60.3355 28.7216 60.6328 28.3822C61.242 27.7129 62.0298 27.2313 62.9036 26.994C63.7596 26.7153 64.6505 26.5459 65.4912 26.2296C66.8777 25.6293 68.0968 24.7005 69.0429 23.5236C69.989 22.3467 70.6337 20.9571 70.921 19.4753C71.2573 18.3694 71.1412 17.1755 70.598 16.155C70.1051 15.4636 69.3737 14.9788 68.5443 14.7937C67.4671 14.5951 66.3569 14.6753 65.3194 15.0265C64.282 15.3777 63.3518 15.9883 62.6174 16.8002C61.169 18.4407 60.0428 20.339 59.2978 22.3958C58.1242 25.1515 57.0323 27.952 55.6094 30.5867C55.071 31.5832 54.3111 32.6694 53.1797 32.7375C54.4029 29.7951 55.6743 26.873 56.9937 23.9713C57.5736 22.8637 57.9707 21.6699 58.17 20.4359C58.2635 19.8174 58.2041 19.1853 57.9971 18.5949C57.79 18.0045 57.4416 17.4736 56.9821 17.0485C55.8508 16.3298 54.4848 16.0767 53.1708 16.3423C54.098 14.1301 55.2776 12.0321 56.686 10.0898C56.8517 9.80624 57.1029 9.58228 57.4038 9.44994C57.7857 9.3824 58.1793 9.45326 58.5136 9.64979C61.244 11.0022 64.2589 11.6822 67.3062 11.633C69.058 11.5262 70.7495 10.9542 72.2058 9.97599C72.9626 9.49921 73.612 8.87071 74.113 8.13028C74.614 7.38984 74.9557 6.55358 75.1164 5.67443C75.1972 5.00193 75.1519 4.32027 74.9827 3.66435C74.4408 1.48669 72.6814 0.525108 70.5532 0.185464C70.0153 0.0785604 69.4694 0.0165118 68.9212 -4.03998e-05C64.8317 -0.0197429 60.8642 1.39009 57.7061 3.98517C57.3794 4.31299 56.957 4.52896 56.4997 4.60206C56.0424 4.67516 55.5736 4.60163 55.1608 4.39203C53.5751 3.77537 51.9249 3.33917 50.2414 3.0917C47.9628 2.64982 45.6022 2.95791 43.5137 3.96972C41.4253 4.98153 39.7217 6.64252 38.6585 8.70344C38.0589 9.80957 37.8395 11.0817 38.034 12.3245C38.2285 13.5672 38.8262 14.7118 39.7351 15.5824C40.7699 16.3318 42.0016 16.7625 43.2784 16.8212C44.5553 16.88 45.8214 16.5643 46.9208 15.913C47.4415 15.6017 47.852 15.136 48.0951 14.5807C48.3383 14.0254 48.402 13.4082 48.2774 12.815C48.2141 12.4139 48.0139 12.0469 47.7107 11.7763C47.4076 11.5057 47.0201 11.3481 46.614 11.3301C46.0376 11.2536 45.4516 11.358 44.9372 11.6289C44.4228 11.8997 44.0054 12.3236 43.7429 12.8419C43.5525 13.1917 43.402 13.5617 43.2943 13.9451C43.1382 14.4093 43.5348 15.1334 42.6851 15.2633C42.3595 15.2988 42.0305 15.2435 41.7345 15.1035C41.4384 14.9635 41.1871 14.7443 41.0082 14.4702C39.9621 13.2156 39.9998 11.6778 41.0352 9.87562C43.533 5.52925 49.7174 5.52836 53.3314 7.51783C53.9379 7.85209 53.7467 8.15141 53.4614 8.57888C51.2184 11.9233 49.8672 15.698 48.2702 19.3525C46.5718 23.24 44.9174 27.1491 43.1956 31.0231C42.7284 32.2446 41.9429 33.3191 40.9203 34.1355C40.4627 34.4671 39.9235 34.7825 39.4058 34.4366C38.8083 34.0378 39.1582 33.4293 39.3448 32.94C39.6454 32.1496 40.0267 31.3897 40.3632 30.61C41.709 27.5004 43.0548 24.3898 44.4391 21.1789L45.9886 17.5942L42.1638 17.6346L41.2281 19.805C41.2083 19.8516 41.1886 19.8947 41.1697 19.9448C39.7208 23.5546 38.1489 27.1141 36.594 30.6853C36.1605 31.6387 35.8297 32.6355 35.6071 33.6587C35.0598 36.375 36.4307 38.0616 39.16 38.0894C40.5737 38.1284 41.953 37.6504 43.0386 36.7451C43.3975 36.4503 43.6442 36.2227 44.1915 36.5247C45.1375 37.0525 46.2218 37.2806 47.3005 37.1786C48.3792 37.0766 49.4015 36.6495 50.2315 35.9538C50.9098 35.4708 51.3458 35.0577 51.9532 36.0273C52.2134 36.4404 52.8235 36.4064 53.3475 36.332C54.5891 36.1205 55.73 35.5167 56.6026 34.6096C56.9426 34.2879 57.1678 33.9366 57.8497 34.2153C60.0388 35.1969 62.5048 35.3741 64.812 34.7158C67.1193 34.0574 69.1194 32.6057 70.459 30.6172C71.3616 29.3593 72.1189 28.0034 72.7164 26.5755C74.1124 23.3727 75.5309 20.1787 76.8803 16.9562C77.3423 15.8521 78.2692 15.9543 78.9986 16.1828C79.8177 16.4391 79.2956 17.1874 79.0991 17.7062C78.7985 18.4984 78.4226 19.2611 78.1041 20.047C76.9834 22.8206 75.4806 25.4392 74.6552 28.3284C74.3928 29.0132 74.3379 29.7599 74.4975 30.4756C74.657 31.1913 75.0239 31.8442 75.5524 32.353C76.1172 32.818 76.8001 33.1173 77.5251 33.2178C78.25 33.3183 78.9887 33.2159 79.6589 32.9221C80.1607 32.7064 80.6283 32.4187 81.0469 32.0681C81.3627 31.844 81.561 31.5116 82.0724 31.7652C83.0985 32.3025 84.264 32.5152 85.4141 32.375C86.5641 32.2348 87.6442 31.7483 88.5107 30.9801C88.9001 30.6799 89.1388 30.7651 89.5497 30.9595C90.4964 31.4364 91.5638 31.6208 92.6158 31.4889C93.6678 31.3571 94.6566 30.915 95.456 30.2193C97.8874 28.2836 98.9793 25.5118 99.9941 22.653C97.6479 22.4147 95.971 23.0384 95.2138 25.3236M62.7995 22.9998C63.5424 21.3276 64.1274 19.5532 65.5746 18.2986C65.7964 18.0943 66.071 17.9561 66.3674 17.8997C66.6638 17.8433 66.97 17.871 67.2515 17.9796C67.4136 18.0454 67.55 18.1622 67.64 18.3122C67.7299 18.4622 67.7687 18.6373 67.7503 18.8112C67.84 20.7828 65.2758 23.5205 63.3154 23.585C62.8363 23.6003 62.6058 23.4381 62.8005 22.9998M69.525 3.62492C70.3163 3.70199 71.1947 3.91527 71.4289 4.82308C71.5131 5.26934 71.4474 5.73088 71.242 6.13601C71.0366 6.54114 70.703 6.86718 70.293 7.06347C69.0929 7.80285 67.6769 8.11314 66.2771 7.9435C64.2411 7.83785 62.2445 7.34097 60.3968 6.48008C62.9407 4.35724 66.2242 3.32998 69.5259 3.62402M49.7964 31.3735C49.5678 31.9231 49.2152 32.4125 48.766 32.8034C48.3169 33.1944 47.7833 33.4764 47.207 33.6274C46.1115 33.5261 46.3098 32.7922 46.5278 32.2007C46.9917 30.9461 47.5399 29.7165 48.0719 28.4843C48.8794 26.6141 49.6654 24.7321 50.5348 22.8896C51.0496 21.6876 51.9634 20.6996 53.1223 20.0918C53.3044 19.9556 53.5249 19.8806 53.7524 19.8773C53.9798 19.8741 54.2024 19.9429 54.3883 20.0739C54.7803 20.4198 54.5103 20.8509 54.3703 21.1798C52.907 24.6058 51.589 28.0981 49.7946 31.3735M87.1658 27.6536C86.9606 27.9372 86.7063 28.1818 86.4149 28.3759C85.8765 28.7621 85.2243 29.1278 84.6357 28.651C84.0633 28.1868 84.432 27.555 84.6851 27.0128C86.2013 23.7661 87.4664 20.4037 89.1612 17.2447C89.3596 16.7862 89.6479 16.3719 90.0091 16.0264C90.3703 15.6809 90.797 15.4111 91.2643 15.2328C92.1031 14.964 92.6648 15.1522 92.5203 16.2007C92.5198 16.2507 92.5126 16.3005 92.4988 16.3486C92.2859 16.8265 92.0765 17.3072 91.8708 17.7905L91.8089 17.9321C90.4137 21.2479 89.1594 24.6282 87.1578 27.6563" fill="#FFB000"></path></svg>